<?xml version="1.0" encoding="UTF-8"?>
<!DOCTYPE svg PUBLIC "-//W3C//DTD SVG 1.1//EN" "http://www.w3.org/Graphics/SVG/1.1/DTD/svg11.dtd">
<svg version="1.1" xmlns="http://www.w3.org/2000/svg" xmlns:xlink="http://www.w3.org/1999/xlink" x="0" y="0" width="406.129" height="400.072" viewBox="0, 0, 406.129, 400.072">
  <g id="layer1">
    <path d="M165.813,339.422 C166.06,336.846 166.699,284.871 166.509,228.528 C166.505,227.489 165.888,226.7 164.816,226.367 C161.312,225.278 155.033,220.425 152.36,216.74 C145.211,206.885 145.504,211.235 145.504,114.803 C145.504,69.853 145.333,47.637 145.721,35.629 C146.101,23.889 147.015,21.909 149.147,17.982 C156.546,4.35 166.185,1.594 177.379,1.415 C188.572,1.236 200.261,6.975 205.897,17.576 C207.79,21.136 208.575,22.119 208.944,37.03 C209.256,49.649 209.242,72.258 209.245,114.899 C209.253,195.138 209.143,203.226 207.998,206.774 C205.42,214.763 199.589,221.788 192.566,225.365 L188.254,227.562 L188.254,282.632 C188.254,313.091 187.936,336.866 188.094,339.121 C193.411,349.413 193.001,358.924 191.987,367.688 C190.973,376.453 189.327,389.617 187.777,400.072 L166.914,399.937 C165.337,390.732 163.807,375.73 162.58,367.968 C161.354,360.205 160.586,349.21 165.813,339.422 z" fill="#000000" id="path1543"/>
    <path d="M165.384,30.117 C162.279,30.163 159.799,32.715 159.842,35.82 L159.842,193.093 C159.813,195.121 160.879,197.008 162.631,198.031 C164.383,199.053 166.55,199.053 168.303,198.031 C170.055,197.008 171.121,195.121 171.092,193.093 L171.092,35.82 C171.113,34.3 170.518,32.836 169.443,31.762 C168.368,30.688 166.904,30.095 165.384,30.117 z" fill="#FFFFFF" id="path1558"/>
    <path d="M189.384,30.117 C186.28,30.163 183.799,32.715 183.842,35.82 L183.842,193.093 C183.814,195.121 184.879,197.008 186.632,198.031 C188.384,199.053 190.551,199.053 192.303,198.031 C194.055,197.008 195.121,195.121 195.092,193.093 L195.092,35.82 C195.113,34.3 194.518,32.836 193.443,31.762 C192.368,30.688 190.904,30.095 189.384,30.117 z" fill="#FFFFFF" id="path1560"/>
    <path d="M278.629,399.526 C273.801,399.213 275.222,400.569 260.26,394.975 C245.299,389.382 204.792,358.815 205.494,337.433 C210,336.867 215.329,336.577 219.961,336.29 C244.481,364.635 266.424,372.827 285.941,367.986 C287.004,321.367 287.021,298.722 287.988,235.425 C300.572,239.313 315.298,241.247 326.255,235.416 C326.74,235.716 327.004,252.261 327.004,282.407 C327.004,335.831 326.844,334.283 333.041,341.063 C344.188,355.321 362.987,351.284 371.237,336.263 C382.867,336.397 394.498,336.531 406.129,336.665 L406.129,399.665 C394.321,399.799 382.514,399.933 370.706,400.067 C360.096,384.431 337.826,386.073 328.525,400.041 C311.914,399.54 295.226,400.45 278.629,399.528 z" fill="#000000" id="path1537"/>
    <path d="M62.235,0 C36.659,-0 15.927,20.733 15.927,46.308 C15.938,58.597 20.833,70.378 29.535,79.056 L30.004,79.676 L30.004,291.971 C11.944,306.003 0.143,329.65 0.004,346.04 C-0.136,362.43 3.599,371.748 12.858,384.376 C19.745,391.451 21.094,395.268 29.403,398.823 C28.804,383.88 26.472,372.102 31.507,358.405 C36.542,344.707 49.742,336.215 62.629,335.915 C74.582,335.706 90.993,346.816 93.429,360.139 C95.865,373.462 95.702,383.023 95.071,398.802 C95.071,398.802 103.546,393.396 106.973,389.769 C113.291,383.079 116.916,377.393 120.505,368.54 C123.757,360.518 124.751,353.979 124.269,343.781 C123.663,330.959 122.836,326.872 117.207,316.415 C111.579,305.958 104.339,297.92 94.504,292.737 L94.504,79.676 L95.128,78.85 C103.708,70.191 108.527,58.498 108.541,46.308 C108.541,20.733 87.809,0.001 62.235,0 z" fill="#000000" id="path1535"/>
    <path d="M279.588,213.665 C275.012,206.197 275.253,211.683 275.262,115.094 C275.27,18.078 274.74,23.421 279.964,15.891 C288.321,3.842 295.134,1.048 307.743,1.172 C320.353,1.296 334.212,12.627 338.184,25.093 C338.778,26.957 339.004,53.967 339.004,114.603 C339.004,208.599 339.157,204.782 335.062,212.887 C328.572,223.063 320.352,228.538 308.786,228.691 C297.219,228.843 285.282,222.606 279.588,213.665 z" fill="#000000" id="path1507"/>
    <path d="M73.316,65.228 L51.602,65.132 L40.827,46.279 L51.767,27.522 L73.482,27.618 L84.256,46.471 z" fill="#FFFFFF" id="path1529"/>
  </g>
</svg>
