<?xml version="1.0" encoding="UTF-8" standalone="no"?>
<svg
   xmlns:dc="http://purl.org/dc/elements/1.1/"
   xmlns:cc="http://creativecommons.org/ns#"
   xmlns:rdf="http://www.w3.org/1999/02/22-rdf-syntax-ns#"
   xmlns:svg="http://www.w3.org/2000/svg"
   xmlns="http://www.w3.org/2000/svg"
   xmlns:sodipodi="http://sodipodi.sourceforge.net/DTD/sodipodi-0.dtd"
   xmlns:inkscape="http://www.inkscape.org/namespaces/inkscape"
   version="1.1"
   x="0px"
   y="0px"
   viewBox="0 0 58.334 64.583"
   enable-background="new 0 0 95.834 100"
   xml:space="preserve"
   id="svg4222"
   inkscape:version="0.91 r"
   sodipodi:docname="lightbulb.svg"
   width="58.334"
   height="64.583"><metadata
     id="metadata4268"><rdf:RDF><cc:Work
         rdf:about=""><dc:format>image/svg+xml</dc:format><dc:type
           rdf:resource="http://purl.org/dc/dcmitype/StillImage" /><dc:title></dc:title></cc:Work></rdf:RDF></metadata><defs
     id="defs4266" /><sodipodi:namedview
     pagecolor="#ffffff"
     bordercolor="#666666"
     borderopacity="1"
     objecttolerance="10"
     gridtolerance="10"
     guidetolerance="10"
     inkscape:pageopacity="0"
     inkscape:pageshadow="2"
     inkscape:window-width="1920"
     inkscape:window-height="1003"
     id="namedview4264"
     showgrid="false"
     fit-margin-top="0"
     fit-margin-left="0"
     fit-margin-right="0"
     fit-margin-bottom="0"
     inkscape:zoom="4.11"
     inkscape:cx="7.9583495"
     inkscape:cy="40.750225"
     inkscape:window-x="0"
     inkscape:window-y="0"
     inkscape:window-maximized="1"
     inkscape:current-layer="svg4222" /><path
     d="m 33.334,56.25 -8.334,0 c -1.151,0 -2.083,-0.932 -2.083,-2.083 0,-1.151 0.932,-2.084 2.083,-2.084 l 8.334,0 c 1.151,0 2.083,0.933 2.083,2.084 0,1.151 -0.932,2.083 -2.083,2.083 z"
     id="path4248"
     inkscape:connector-curvature="0"
     style="fill:#000000" /><path
     d="m 29.167,12.5 c -1.151,0 -2.083,-0.932 -2.083,-2.083 l 0,-8.334 C 27.084,0.932 28.016,0 29.167,0 30.318,0 31.25,0.932 31.25,2.083 l 0,8.333 c 0,1.152 -0.932,2.084 -2.083,2.084 z"
     id="path4250"
     inkscape:connector-curvature="0"
     style="fill:#000000" /><path
     d="m 10.417,31.25 -8.333,0 C 0.933,31.25 0,30.318 0,29.167 0,28.016 0.933,27.083 2.084,27.083 l 8.333,0 c 1.151,0 2.083,0.933 2.083,2.084 0,1.151 -0.932,2.083 -2.083,2.083 z"
     id="path4252"
     inkscape:connector-curvature="0"
     style="fill:#000000" /><path
     d="m 15.625,17.708 c -0.532,0 -1.065,-0.203 -1.473,-0.61 L 8.257,11.206 c -0.813,-0.814 -0.813,-2.132 0,-2.946 0.813,-0.814 2.132,-0.814 2.946,0 l 5.895,5.892 c 0.813,0.814 0.813,2.132 0,2.946 -0.407,0.407 -0.94,0.61 -1.473,0.61 z"
     id="path4254"
     inkscape:connector-curvature="0"
     style="fill:#000000" /><path
     d="m 42.709,17.708 c -0.533,0 -1.066,-0.203 -1.474,-0.61 -0.813,-0.813 -0.813,-2.132 0,-2.946 l 5.893,-5.895 c 0.813,-0.814 2.132,-0.814 2.945,0 0.814,0.814 0.814,2.132 0,2.946 l -5.892,5.895 c -0.407,0.407 -0.94,0.61 -1.472,0.61 z"
     id="path4256"
     inkscape:connector-curvature="0"
     style="fill:#000000" /><path
     d="m 56.25,31.25 -8.333,0 c -1.151,0 -2.083,-0.932 -2.083,-2.083 0,-1.151 0.932,-2.084 2.083,-2.084 l 8.333,0 c 1.151,0 2.084,0.933 2.084,2.084 0,1.151 -0.933,2.083 -2.084,2.083 z"
     id="path4258"
     inkscape:connector-curvature="0"
     style="fill:#000000" /><path
     d="m 33.334,58.333 -8.334,0 c -1.151,0 -2.083,0.933 -2.083,2.084 0,1.151 0.932,2.083 2.083,2.083 l 1.042,0 c 0,1.151 0.932,2.083 2.083,2.083 l 2.084,0 c 1.151,0 2.083,-0.932 2.083,-2.083 l 1.042,0 c 1.151,0 2.083,-0.932 2.083,-2.083 0,-1.151 -0.932,-2.084 -2.083,-2.084 z"
     id="path4260"
     inkscape:connector-curvature="0"
     style="fill:#000000" /><path
     d="m 39.905,39.01 c 2.38,-2.596 3.845,-6.045 3.845,-9.843 0,-8.055 -6.529,-14.583 -14.583,-14.583 -8.054,0 -14.583,6.529 -14.583,14.583 0,3.674 1.369,7.021 3.61,9.584 0.975,1.097 4.723,5.54 4.723,9.166 0,1.151 0.932,2.083 2.083,2.083 l 8.334,0 c 1.151,0 2.083,-0.932 2.083,-2.083 l 0,-0.117 c 0.07,-3.361 3.274,-7.384 4.488,-8.79 z"
     id="path4262"
     inkscape:connector-curvature="0"
     style="fill:#000000" /><path
     inkscape:connector-curvature="0"
     style="fill:#000000"
     d="M 10.1222,23.456041 2.291742,20.605987 C 1.210155,20.212321 0.652185,19.017423 1.04585,17.935837 1.439515,16.854251 2.635353,16.296622 3.71694,16.690288 l 7.830458,2.850053 c 1.081586,0.393666 1.638275,1.589162 1.24461,2.670748 -0.393665,1.081586 -1.588222,1.638617 -2.669808,1.244952 z"
     id="path4252-3" /><path
     inkscape:connector-curvature="0"
     style="fill:#000000"
     d="m 47.754836,23.820797 7.830458,-2.850054 c 1.081587,-0.393666 1.639557,-1.588564 1.245892,-2.67015 -0.393665,-1.081586 -1.589503,-1.639215 -2.67109,-1.245549 l -7.830457,2.850053 c -1.081586,0.393666 -1.638275,1.589162 -1.24461,2.670748 0.393665,1.081586 1.588222,1.638617 2.669807,1.244952 z"
     id="path4252-3-6" /><path
     inkscape:connector-curvature="0"
     style="fill:#000000"
     d="m 36.04668,13.537313 c -1.081586,-0.393665 -1.638617,-1.588222 -1.244952,-2.669808 l 2.850396,-7.8313985 c 0.393665,-1.081586 1.588222,-1.638617 2.669808,-1.244952 1.081586,0.393665 1.638617,1.588222 1.244952,2.669808 L 38.71683,12.291421 c -0.394007,1.082526 -1.588564,1.639557 -2.67015,1.245892 z"
     id="path4250-7" /><path
     inkscape:connector-curvature="0"
     style="fill:#000000"
     d="m 21.830448,13.415663 c 1.081586,-0.393665 1.638617,-1.588222 1.244952,-2.669808 L 20.225004,2.9144565 c -0.393665,-1.081586 -1.588222,-1.638617 -2.669808,-1.244952 -1.081586,0.393665 -1.638617,1.588222 -1.244952,2.669808 l 2.850054,7.8304585 c 0.394007,1.082526 1.588564,1.639557 2.67015,1.245892 z"
     id="path4250-7-5" /><path
     inkscape:connector-curvature="0"
     style="fill:#000000"
     d="m 16.079524,40.231902 c -0.532,0 -1.065,0.203 -1.473,0.61 l -5.894999,5.891999 c -0.813,0.814 -0.813,2.132 0,2.946 0.813,0.814 2.132,0.814 2.945999,0 l 5.895,-5.891999 c 0.813,-0.814 0.813,-2.132 0,-2.946 -0.407,-0.407 -0.94,-0.61 -1.473,-0.61 z"
     id="path4254-3" /><path
     inkscape:connector-curvature="0"
     style="fill:#000000"
     d="m 10.576725,34.483861 -7.830458,2.850054 c -1.081587,0.393666 -1.639557,1.588564 -1.245892,2.67015 0.393665,1.081586 1.589503,1.639215 2.67109,1.245549 l 7.830457,-2.850053 c 1.081586,-0.393666 1.638275,-1.589162 1.24461,-2.670748 -0.393665,-1.081586 -1.588222,-1.638617 -2.669807,-1.244952 z"
     id="path4252-3-5" /><path
     inkscape:connector-curvature="0"
     style="fill:#000000"
     d="m 42.284222,39.866938 c 0.532,0 1.065,0.203 1.473,0.61 l 5.894999,5.892 c 0.813,0.814 0.813,2.132 0,2.946 -0.813,0.814 -2.132,0.814 -2.945999,0 l -5.895,-5.892 c -0.813,-0.814 -0.813,-2.132 0,-2.946 0.407,-0.407 0.94,-0.61 1.473,-0.61 z"
     id="path4254-2" /><path
     inkscape:connector-curvature="0"
     style="fill:#000000"
     d="m 47.787021,34.118897 7.830458,2.850054 c 1.081587,0.393666 1.639557,1.588564 1.245892,2.67015 -0.393665,1.081586 -1.589503,1.639215 -2.67109,1.245549 l -7.830457,-2.850053 c -1.081586,-0.393666 -1.638275,-1.589162 -1.24461,-2.670748 0.393665,-1.081586 1.588222,-1.638617 2.669807,-1.244952 z"
     id="path4252-3-9" /></svg>