<?xml version="1.0" encoding="UTF-8" standalone="no"?>
<svg
   xmlns:dc="http://purl.org/dc/elements/1.1/"
   xmlns:cc="http://creativecommons.org/ns#"
   xmlns:rdf="http://www.w3.org/1999/02/22-rdf-syntax-ns#"
   xmlns:svg="http://www.w3.org/2000/svg"
   xmlns="http://www.w3.org/2000/svg"
   xmlns:sodipodi="http://sodipodi.sourceforge.net/DTD/sodipodi-0.dtd"
   xmlns:inkscape="http://www.inkscape.org/namespaces/inkscape"
   version="1.0"
   width="1159.000000pt"
   height="1280.000000pt"
   viewBox="0 0 1159.000000 1280.000000"
   preserveAspectRatio="xMidYMid meet"
   id="svg2"
   inkscape:version="0.91 r"
   sodipodi:docname="needleandthread.svg">
  <metadata
     id="metadata12">
    <rdf:RDF>
      <cc:Work
         rdf:about="">
        <dc:format>image/svg+xml</dc:format>
        <dc:type
           rdf:resource="http://purl.org/dc/dcmitype/StillImage" />
        <dc:title></dc:title>
      </cc:Work>
    </rdf:RDF>
  </metadata>
  <defs
     id="defs10" />
  <sodipodi:namedview
     pagecolor="#ffffff"
     bordercolor="#666666"
     borderopacity="1"
     objecttolerance="10"
     gridtolerance="10"
     guidetolerance="10"
     inkscape:pageopacity="0"
     inkscape:pageshadow="2"
     inkscape:window-width="1920"
     inkscape:window-height="1003"
     id="namedview8"
     showgrid="false"
     inkscape:zoom="0.23316346"
     inkscape:cx="-613.17751"
     inkscape:cy="610.44438"
     inkscape:window-x="0"
     inkscape:window-y="0"
     inkscape:window-maximized="1"
     inkscape:current-layer="svg2" />
  <path
     style="fill:#000000;stroke:none"
     inkscape:connector-curvature="0"
     id="path6"
     d="m 1026.6,85.5 c 29.6,-33.8 45.9,-59 47.2,-72.7 0.5,-5.5 0.3,-5.9 -3.1,-9.3 -3.9,-3.9 -7.7,-4.4 -15.3,-2.1 -20.5,6.4 -55.9,34.2 -108.3,85.1 -8.3,8.1 -14.6,13.5 -17.425,15.85 L 917.3,116.1 c -9.5,9.3 -31.5,34.2 -71.8,81.4 -59.1,69.2 -59.2,69.3 -127.4,138 -33.9,34.1 -76.2,76.7 -94.1,94.7 -29.9,30.3 -34.3196,33.81307 -35.2196,31.71307 -0.5,-1.2 0.9196,-20.01307 0.8196,-41.41307 l 0,-38 3.8,-6 c 6.8,-11.1 7.9,-16.3 8.4,-39.5 0.3,-16.2 0,-22.4 -1.3,-29.5 l -7.4,-17.75 C 587.3,281 584.5,278.4 581.3,275.2 554,247.9 501.4,226 432.5,213.1 336.8,195.3 229.5,197.8 137.3,220 61.6,238.2 9.9,271.2 1.6,306.3 c -1.5,6.2 -1.7,11.1 -1.4,29.8 0.3,20.3 0.6,23 2.7,28.9 3,8.5 7.6,16 14.5,23.7 l 5.6,6.1 0,315.7 0,315.6 -5.7,6.5 c -7.5,8.3 -12.9,17.2 -15.3,25.5 -1.8,5.9 -2,9.6 -2,34.2 0,15.1 0.3,27.7 0.8,27.9 0.4,0.1 1.5,2.8 2.6,5.8 14.5,42.5 94,79.4 201.6,93.4 33.9,4.4 46.3,5.1 96,5.1 50.9,0 61.4,-0.6 99,-5.6 106.9,-14.1 186.5,-51.9 199.1,-94.7 0.7,-2.3 1.6,-4.2 2.1,-4.2 0.4,0 0.8,-12.3 0.8,-27.3 0,-23.5 -0.3,-28 -1.8,-33.2 -2.9,-9.5 -6.9,-16.6 -13.8,-24.8 l -6.4,-7.7 5.1466,-218.1466 6.06533,-325.81516 m 265.0457,-281.17383 c -12.9,17 -1.85763,15.23559 8.84237,13.83559 4.7,-0.6 12.1,-4.9 21.6,-12.5 8.9,-7 30.6,-26.8 41.2,-37.5 l 8.4,-8.5 m 5.15,-5.05 c -16.09881,7.57102 -25.12963,-12.38942 -21.04237,-18.08559 L 945.7,108.8 c 13.7,-14 57.2,-54.9 71.1,-67.1 27.5,-24 43,-33.2 44,-26 1.3,9.3 -27.5,43.7 -87.7,104.6 l -26.5,26.8"
     sodipodi:nodetypes="ccsccccccccccccccscccccccccccscccsccssccccccccccccccccc" />
</svg>
