<?xml version="1.0" encoding="UTF-8" standalone="no"?>
<!-- Created with Inkscape (http://www.inkscape.org/) -->

<svg
   xmlns:dc="http://purl.org/dc/elements/1.1/"
   xmlns:cc="http://creativecommons.org/ns#"
   xmlns:rdf="http://www.w3.org/1999/02/22-rdf-syntax-ns#"
   xmlns:svg="http://www.w3.org/2000/svg"
   xmlns="http://www.w3.org/2000/svg"
   xmlns:sodipodi="http://sodipodi.sourceforge.net/DTD/sodipodi-0.dtd"
   xmlns:inkscape="http://www.inkscape.org/namespaces/inkscape"
   id="svg4255"
   version="1.1"
   inkscape:version="0.91 r"
   xml:space="preserve"
   width="495"
   height="405"
   viewBox="0 0 495 405"
   sodipodi:docname="altspace-label-Public.svg"><metadata
     id="metadata4261"><rdf:RDF><cc:Work
         rdf:about=""><dc:format>image/svg+xml</dc:format><dc:type
           rdf:resource="http://purl.org/dc/dcmitype/StillImage" /><dc:title></dc:title></cc:Work></rdf:RDF></metadata><defs
     id="defs4259"><clipPath
       clipPathUnits="userSpaceOnUse"
       id="clipPath4269"><path
         d="m 198,306 170,0 c 5.5228,0 10,-4.4771 10,-10 l 0,-268 c 0,-5.5229 -4.4772,-10 -10,-10 L 28,18 c -5.5229,0 -10,4.4771 -10,10 l 0,268 c 0,5.5229 4.4771,10 10,10"
         id="path4271"
         inkscape:connector-curvature="0"
         style="clip-rule:evenodd" /></clipPath></defs><sodipodi:namedview
     pagecolor="#ffffff"
     bordercolor="#666666"
     borderopacity="1"
     objecttolerance="10"
     gridtolerance="10"
     guidetolerance="10"
     inkscape:pageopacity="0"
     inkscape:pageshadow="2"
     inkscape:window-width="1920"
     inkscape:window-height="1003"
     id="namedview4257"
     showgrid="false"
     inkscape:zoom="1.6481699"
     inkscape:cx="326.41254"
     inkscape:cy="203.97931"
     inkscape:window-x="0"
     inkscape:window-y="0"
     inkscape:window-maximized="1"
     inkscape:current-layer="g4263" /><g
     id="g4263"
     inkscape:groupmode="layer"
     inkscape:label="4x5-sticker-dye-line"
     transform="matrix(1.25,0,0,-1.25,0,405)"><path
       style="font-style:normal;font-variant:normal;font-weight:normal;font-stretch:normal;font-size:medium;line-height:125%;font-family:sans-serif;-inkscape-font-specification:sans-serif;letter-spacing:0px;word-spacing:0px;fill:#2d2926;fill-opacity:1;stroke:none;stroke-width:1px;stroke-linecap:butt;stroke-linejoin:miter;stroke-opacity:1"
       d="m 225.04053,37.864255 0,-10.113677 -2.64077,0 0,2.69065 q -0.90417,-1.61439 -2.25327,-2.389931 -1.34908,-0.759712 -3.30096,-0.759712 -2.46855,0 -3.93246,1.519425 -1.44956,1.535253 -1.44956,4.099284 0,2.99137 1.80836,4.510796 1.82271,1.519425 5.42506,1.519425 l 3.70283,0 0,0.284893 q 0,2.010073 -1.20557,3.102161 -1.19122,1.107914 -3.35837,1.107914 -1.37779,0 -2.68383,-0.364029 -1.30603,-0.364029 -2.51161,-1.092087 l 0,2.69065 q 1.44956,0.617266 2.813,0.917985 1.36344,0.316547 2.65513,0.316547 3.48754,0 5.20979,-1.994245 1.72223,-1.994247 1.72223,-6.046049 z"
       id="path7422" /><path
       inkscape:connector-curvature="0"
       id="path7424"
       style="font-style:normal;font-variant:normal;font-weight:normal;font-stretch:normal;font-size:medium;line-height:125%;font-family:sans-serif;-inkscape-font-specification:sans-serif;letter-spacing:0px;word-spacing:0px;fill:#2d2926;fill-opacity:1;stroke:none;stroke-width:1px;stroke-linecap:butt;stroke-linejoin:miter;stroke-opacity:1"
       d="m 230.86746,31.770726 3.02828,0 0,-4.020148 -3.02828,0 0,4.020148 z" /><path
       inkscape:connector-curvature="0"
       id="path7426"
       style="font-style:normal;font-variant:normal;font-weight:normal;font-stretch:normal;font-size:medium;line-height:125%;font-family:sans-serif;-inkscape-font-specification:sans-serif;letter-spacing:0px;word-spacing:0px;fill:#2d2926;fill-opacity:1;stroke:none;stroke-width:1px;stroke-linecap:butt;stroke-linejoin:miter;stroke-opacity:1"
       d="m 239.85183,52.377937 2.64077,0 0,-24.627359 -2.64077,0 0,24.627359 z" /><path
       inkscape:connector-curvature="0"
       id="path7428"
       style="font-style:normal;font-variant:normal;font-weight:normal;font-stretch:normal;font-size:medium;line-height:125%;font-family:sans-serif;-inkscape-font-specification:sans-serif;letter-spacing:0px;word-spacing:0px;fill:#2d2926;fill-opacity:1;stroke:none;stroke-width:1px;stroke-linecap:butt;stroke-linejoin:miter;stroke-opacity:1"
       d="m 248.37693,31.770726 3.02828,0 0,-4.020148 -3.02828,0 0,4.020148 z" /><path
       inkscape:connector-curvature="0"
       id="path7430"
       style="font-style:normal;font-variant:normal;font-weight:normal;font-stretch:normal;font-size:medium;line-height:125%;font-family:sans-serif;-inkscape-font-specification:sans-serif;letter-spacing:0px;word-spacing:0px;fill:#2d2926;fill-opacity:1;stroke:none;stroke-width:1px;stroke-linecap:butt;stroke-linejoin:miter;stroke-opacity:1"
       d="m 259.97337,50.510309 0,-5.033098 5.43942,0 0,-2.263311 -5.43942,0 0,-9.623029 q 0,-2.168348 0.53103,-2.785614 0.54537,-0.617267 2.19586,-0.617267 l 2.71253,0 0,-2.437412 -2.71253,0 q -3.05698,0 -4.2195,1.250361 -1.16251,1.266188 -1.16251,4.589932 l 0,9.623029 -1.93753,0 0,2.263311 1.93753,0 0,5.033098 2.65512,0 z" /><path
       inkscape:connector-curvature="0"
       id="path7432"
       style="font-style:normal;font-variant:normal;font-weight:normal;font-stretch:normal;font-size:medium;line-height:125%;font-family:sans-serif;-inkscape-font-specification:sans-serif;letter-spacing:0px;word-spacing:0px;fill:#2d2926;fill-opacity:1;stroke:none;stroke-width:1px;stroke-linecap:butt;stroke-linejoin:miter;stroke-opacity:1"
       d="m 269.27348,31.770726 3.02828,0 0,-4.020148 -3.02828,0 0,4.020148 z" /><path
       inkscape:connector-curvature="0"
       id="path7434"
       style="font-style:normal;font-variant:normal;font-weight:bold;font-stretch:normal;font-size:medium;line-height:125%;font-family:sans-serif;-inkscape-font-specification:'sans-serif Bold';letter-spacing:0px;word-spacing:0px;fill:#2d2926;fill-opacity:1;stroke:none;stroke-width:1px;stroke-linecap:butt;stroke-linejoin:miter;stroke-opacity:1;"
       d="m 290.51449,44.923254 0,-4.305039 q -1.65048,0.759712 -3.18615,1.139569 -1.53567,0.379856 -2.89911,0.379856 -1.46391,0 -2.18151,-0.411511 -0.70324,-0.395684 -0.70324,-1.234533 0,-0.680576 0.53102,-1.044605 0.54537,-0.36403 1.93752,-0.53813 l 0.90418,-0.142447 q 3.94681,-0.553957 5.31025,-1.820144 1.36344,-1.266189 1.36344,-3.972666 0,-2.833096 -1.89447,-4.257557 -1.89446,-1.424462 -5.6547,-1.424462 -1.59307,0 -3.30097,0.284892 -1.69353,0.269065 -3.48754,0.823023 l 0,4.305039 q 1.53567,-0.823022 3.1431,-1.234534 1.62178,-0.411511 3.28661,-0.411511 1.50697,0 2.26762,0.458993 0.76066,0.458994 0.76066,1.361153 0,0.759713 -0.53102,1.123742 -0.51668,0.379857 -2.08105,0.585612 l -0.90417,0.126618 q -3.43014,0.474822 -4.80794,1.756836 -1.37778,1.282016 -1.37778,3.893529 0,2.817269 1.75094,4.178421 1.75095,1.361151 5.36765,1.361151 1.42086,0 2.98523,-0.237409 1.56437,-0.237411 3.40143,-0.743886 z" /><path
       style="font-style:normal;font-variant:normal;font-weight:bold;font-stretch:normal;font-size:medium;line-height:125%;font-family:sans-serif;-inkscape-font-specification:'sans-serif Bold';letter-spacing:0px;word-spacing:0px;fill:#2d2926;fill-opacity:1;stroke:none;stroke-width:1px;stroke-linecap:butt;stroke-linejoin:miter;stroke-opacity:1;"
       d="M 382.41016 347.61914 C 381.01084 347.61914 379.77367 347.92892 378.69727 348.54883 C 377.62087 349.15554 376.6409 350.10587 375.75586 351.39844 L 375.75586 348.1543 L 369.33203 348.1543 L 369.33203 378.74023 L 375.75586 378.74023 L 375.75586 367.10742 C 376.6409 368.39999 377.62087 369.35471 378.69727 369.97461 C 379.77367 370.58132 381.01084 370.88477 382.41016 370.88477 C 384.88588 370.88477 386.91908 369.8037 388.50977 367.64062 C 390.10045 365.46436 390.89648 362.66802 390.89648 359.25195 C 390.89648 355.83588 390.10045 353.04588 388.50977 350.88281 C 386.91908 348.70655 384.88588 347.61914 382.41016 347.61914 z M 380.02539 352.76367 C 381.40079 352.76367 382.44645 353.31787 383.16406 354.42578 C 383.89362 355.5337 384.25781 357.14164 384.25781 359.25195 C 384.25781 361.36227 383.89362 362.97216 383.16406 364.08008 C 382.44645 365.18799 381.40079 365.74219 380.02539 365.74219 C 378.64999 365.74219 377.59113 365.18799 376.84961 364.08008 C 376.12005 362.95897 375.75586 361.34908 375.75586 359.25195 C 375.75586 357.15483 376.12005 355.55323 376.84961 354.44531 C 377.59113 353.32421 378.64999 352.76367 380.02539 352.76367 z "
       id="path7523"
       transform="matrix(0.8,0,0,-0.8,0,324)" /><path
       style="font-style:normal;font-variant:normal;font-weight:bold;font-stretch:normal;font-size:medium;line-height:125%;font-family:sans-serif;-inkscape-font-specification:'sans-serif Bold';letter-spacing:0px;word-spacing:0px;fill:#2d2926;fill-opacity:1;stroke:none;stroke-width:0;stroke-linecap:butt;stroke-linejoin:miter;stroke-opacity:1;stroke-miterlimit:4;stroke-dasharray:none;"
       d="M 404.22656 347.61914 C 402.8392 347.61914 401.45182 347.71817 400.06445 347.91602 C 398.67709 348.10067 397.29532 348.37679 395.91992 348.74609 L 395.91992 354.14844 C 396.93652 353.54172 398.03666 353.08656 399.2207 352.7832 C 400.40474 352.47985 401.68514 352.32812 403.06055 352.32812 C 404.75887 352.32812 406.00727 352.59156 406.80859 353.11914 C 407.60991 353.63353 408.01172 354.45116 408.01172 355.57227 L 408.01172 356.12695 L 404.22656 356.12695 C 400.75815 356.12695 398.21054 356.73383 396.58398 357.94727 C 394.96938 359.1607 394.16211 361.06574 394.16211 363.66406 C 394.16211 365.80076 394.80793 367.54139 396.09961 368.88672 C 397.40325 370.21885 399.09473 370.88477 401.17578 370.88477 C 402.71862 370.88477 404.02907 370.58132 405.10547 369.97461 C 406.18187 369.35471 407.15059 368.37267 408.01172 367.02734 L 408.01172 370.3125 L 414.48828 370.3125 L 414.48828 357.66992 C 414.48828 354.12196 413.68101 351.56369 412.06641 349.99414 C 410.46376 348.41141 407.85045 347.61914 404.22656 347.61914 z M 404.67383 360.33984 L 408.01172 360.33984 L 408.01172 361.15234 C 408.01172 362.59 407.59868 363.78912 406.77344 364.75195 C 405.9482 365.70159 404.93062 366.17773 403.72266 366.17773 C 402.7539 366.17773 401.99548 365.92698 401.44531 365.42578 C 400.90712 364.91139 400.63867 364.20548 400.63867 363.30859 C 400.63867 362.33257 400.97282 361.593 401.64258 361.0918 C 402.3243 360.5906 403.33431 360.33984 404.67383 360.33984 z "
       id="path7438"
       transform="matrix(0.8,0,0,-0.8,0,324)" /><path
       inkscape:connector-curvature="0"
       id="path7440"
       style="font-style:normal;font-variant:normal;font-weight:bold;font-stretch:normal;font-size:medium;line-height:125%;font-family:sans-serif;-inkscape-font-specification:'sans-serif Bold';letter-spacing:0px;word-spacing:0px;fill:#2d2926;fill-opacity:1;stroke:none;stroke-width:1px;stroke-linecap:butt;stroke-linejoin:miter;stroke-opacity:1;"
       d="m 349.38651,44.923254 0,-4.621586 q -1.0477,0.791367 -2.10976,1.171224 -1.04769,0.379857 -2.1815,0.379857 -2.1528,0 -3.35837,-1.392808 -1.19122,-1.37698 -1.19122,-3.861874 0,-2.484893 1.19122,-3.8777 1.20557,-1.37698 3.35837,-1.37698 1.20557,0 2.28198,0.395683 1.09075,0.395685 2.00928,1.171224 l 0,-4.637414 q -1.20557,-0.490647 -2.4542,-0.728057 -1.23428,-0.253238 -2.4829,-0.253238 -4.34867,0 -6.80286,2.45324 -2.4542,2.469066 -2.4542,6.853242 0,4.384177 2.4542,6.837416 2.45419,2.469066 6.80286,2.469066 1.26297,0 2.4829,-0.253237 1.23428,-0.23741 2.4542,-0.728058 z" /><path
       style="font-style:normal;font-variant:normal;font-weight:bold;font-stretch:normal;font-size:medium;line-height:125%;font-family:sans-serif;-inkscape-font-specification:'sans-serif Bold';letter-spacing:0px;word-spacing:0px;fill:#2d2926;fill-opacity:1;stroke:none;stroke-width:0;stroke-linecap:butt;stroke-linejoin:miter;stroke-opacity:1;stroke-miterlimit:4;stroke-dasharray:none;"
       d="M 451.94531 347.61914 C 448.4769 347.61914 445.75098 348.65387 443.76562 350.72461 C 441.79222 352.79535 440.80469 355.63804 440.80469 359.25195 C 440.80469 362.93181 441.81103 365.79352 443.82031 367.83789 C 445.84155 369.86907 448.66884 370.88477 452.30469 370.88477 C 453.82361 370.88477 455.3424 370.72036 456.86133 370.39062 C 458.38024 370.07408 459.89904 369.59989 461.41797 368.9668 L 461.41797 363.50586 C 459.92296 364.40274 458.46425 365.075 457.04102 365.52344 C 455.62972 365.95869 454.24797 366.17773 452.89648 366.17773 C 451.22208 366.17773 449.9192 365.76062 448.98633 364.92969 C 448.05344 364.09875 447.509 362.85328 447.35352 361.19141 L 462.36914 361.19141 L 462.36914 359.17383 C 462.36914 355.66543 461.41923 352.86275 459.51758 350.76562 C 457.62789 348.6685 455.10275 347.61914 451.94531 347.61914 z M 451.91016 352.32812 C 453.05832 352.32812 453.98576 352.74328 454.69141 353.57422 C 455.40901 354.39197 455.76758 355.47304 455.76758 356.81836 L 447.42578 356.81836 C 447.61714 355.36752 448.1015 354.26108 448.87891 353.49609 C 449.6563 352.71792 450.66631 352.32812 451.91016 352.32812 z "
       id="path7507"
       transform="matrix(0.8,0,0,-0.8,0,324)" /><path
       style="fill:#001489;fill-opacity:1;fill-rule:evenodd;stroke:none;stroke-width:1px;stroke-linecap:butt;stroke-linejoin:miter;stroke-opacity:1"
       d="M 9.6289062 10.486328 L 9.6289062 101.34961 L 485.75391 102.5 L 485.75391 10.486328 L 9.6289062 10.486328 z M 119.66992 34.5 L 119.66992 50.949219 C 120.88326 50.389219 122.04992 50.016745 123.16992 49.830078 C 124.28992 49.596745 125.4093 49.480469 126.5293 49.480469 C 128.67596 49.480469 130.56589 49.900234 132.19922 50.740234 C 133.83255 51.533568 135.18643 52.700234 136.25977 54.240234 C 137.37977 55.733568 138.2193 57.530859 138.7793 59.630859 C 139.3393 61.730859 139.61914 64.064193 139.61914 66.630859 C 139.61914 69.244193 139.27031 71.622865 138.57031 73.769531 C 137.87031 75.869531 136.84357 77.666823 135.49023 79.160156 C 134.1369 80.65349 132.47953 81.820156 130.51953 82.660156 C 128.55953 83.45349 126.32078 83.849609 123.80078 83.849609 C 121.56078 83.849609 119.27279 83.686042 116.93945 83.359375 C 114.60612 83.032708 112.64721 82.612943 111.06055 82.099609 L 111.06055 35.970703 L 119.66992 34.5 z M 144.24023 34.919922 L 161.94922 34.919922 L 161.94922 70.619141 C 161.94922 72.859141 162.39263 74.376589 163.2793 75.169922 C 164.16596 75.963255 165.28729 76.359375 166.64062 76.359375 C 168.36729 76.359375 169.8138 76.126823 170.98047 75.660156 C 172.14714 75.19349 172.91573 74.89 173.28906 74.75 L 174.41016 81.679688 C 174.27016 81.773021 173.94302 81.936589 173.42969 82.169922 C 172.96302 82.403255 172.3324 82.659453 171.53906 82.939453 C 170.74573 83.172786 169.76628 83.383646 168.59961 83.570312 C 167.47961 83.756979 166.19667 83.849609 164.75 83.849609 C 160.78333 83.849609 157.89031 82.682943 156.07031 80.349609 C 154.25031 77.969609 153.33984 74.516901 153.33984 69.990234 L 153.33984 42.060547 L 144.24023 42.060547 L 144.24023 34.919922 z M 191.14062 35.199219 C 192.63396 35.199219 193.9169 35.689922 194.99023 36.669922 C 196.06357 37.649922 196.59961 39.003802 196.59961 40.730469 C 196.59961 42.410469 196.06357 43.740703 194.99023 44.720703 C 193.9169 45.700703 192.63396 46.189453 191.14062 46.189453 C 189.64729 46.189453 188.3624 45.700703 187.28906 44.720703 C 186.2624 43.740703 185.75 42.410469 185.75 40.730469 C 185.75 39.003802 186.2624 37.649922 187.28906 36.669922 C 188.3624 35.689922 189.64729 35.199219 191.14062 35.199219 z M 52.400391 39.259766 C 57.907057 39.259766 62.177604 40.402786 65.210938 42.689453 C 68.244271 44.929453 69.759766 48.616667 69.759766 53.75 C 69.759766 58.93 68.220625 62.686198 65.140625 65.019531 C 62.107292 67.306198 57.789453 68.449219 52.189453 68.449219 L 49.109375 68.449219 L 49.109375 83.080078 L 40.5 83.080078 L 40.5 40.310547 C 41.34 40.12388 42.274115 39.960312 43.300781 39.820312 C 44.374115 39.680312 45.446198 39.587682 46.519531 39.541016 C 47.592865 39.447682 48.643255 39.376745 49.669922 39.330078 C 50.696589 39.283411 51.607057 39.259766 52.400391 39.259766 z M 53.380859 46.75 C 52.867526 46.75 52.144271 46.773646 51.210938 46.820312 C 50.324271 46.820312 49.622708 46.867604 49.109375 46.960938 L 49.109375 60.960938 L 52.609375 60.960938 C 55.362708 60.960938 57.439844 60.422943 58.839844 59.349609 C 60.239844 58.229609 60.939453 56.339688 60.939453 53.679688 C 60.939453 51.159688 60.239844 49.386042 58.839844 48.359375 C 57.48651 47.286042 55.667526 46.75 53.380859 46.75 z M 233.63086 49.339844 C 235.59086 49.339844 237.36255 49.479766 238.94922 49.759766 C 240.53589 50.039766 242.14596 50.506823 243.7793 51.160156 L 241.89062 58.089844 C 240.95729 57.763177 239.9069 57.483333 238.74023 57.25 C 237.62023 56.97 236.17372 56.830078 234.40039 56.830078 C 232.34706 56.830078 230.6207 57.086276 229.2207 57.599609 C 227.86737 58.066276 226.76969 58.744193 225.92969 59.630859 C 225.08969 60.470859 224.48271 61.497604 224.10938 62.710938 C 223.73604 63.924271 223.55078 65.230859 223.55078 66.630859 C 223.55078 69.664193 224.39031 72.042865 226.07031 73.769531 C 227.79698 75.496198 230.71365 76.359375 234.82031 76.359375 C 236.17365 76.359375 237.57286 76.266745 239.01953 76.080078 C 240.51286 75.893411 241.86674 75.589922 243.08008 75.169922 L 244.33984 82.240234 C 243.12651 82.706901 241.65635 83.079375 239.92969 83.359375 C 238.20302 83.686042 236.17318 83.849609 233.83984 83.849609 C 230.47984 83.849609 227.58682 83.406198 225.16016 82.519531 C 222.78016 81.632865 220.8193 80.420859 219.2793 78.880859 C 217.7393 77.340859 216.59628 75.519922 215.84961 73.419922 C 215.14961 71.319922 214.80078 69.057526 214.80078 66.630859 C 214.80078 64.250859 215.17326 62.010156 215.91992 59.910156 C 216.66659 57.810156 217.80961 55.989219 219.34961 54.449219 C 220.88961 52.862552 222.82682 51.626901 225.16016 50.740234 C 227.54016 49.806901 230.36419 49.339844 233.63086 49.339844 z M 75.849609 50.179688 L 84.460938 50.179688 L 84.460938 67.400391 C 84.460938 70.433724 84.809766 72.69612 85.509766 74.189453 C 86.256432 75.63612 87.679297 76.359375 89.779297 76.359375 C 91.085964 76.359375 92.392552 76.243099 93.699219 76.009766 L 93.699219 50.179688 L 102.38086 50.179688 L 102.38086 81.960938 C 100.79419 82.380938 98.856979 82.800703 96.570312 83.220703 C 94.330313 83.640703 91.880703 83.849609 89.220703 83.849609 C 86.514036 83.849609 84.296979 83.477135 82.570312 82.730469 C 80.843646 81.983802 79.46612 80.933411 78.439453 79.580078 C 77.459453 78.180078 76.78349 76.546354 76.410156 74.679688 C 76.036823 72.813021 75.849609 70.759531 75.849609 68.519531 L 75.849609 50.179688 z M 179.24023 50.179688 L 196.94922 50.179688 L 196.94922 70.550781 C 196.94922 72.510781 197.3 73.980938 198 74.960938 C 198.74667 75.894271 199.96063 76.359375 201.64062 76.359375 C 202.43396 76.359375 203.38977 76.266745 204.50977 76.080078 C 205.62977 75.846745 206.88906 75.403333 208.28906 74.75 L 209.41016 81.679688 C 207.63682 82.519687 205.95581 83.079375 204.36914 83.359375 C 202.82914 83.686042 201.40628 83.849609 200.09961 83.849609 C 197.85961 83.849609 195.96969 83.522474 194.42969 82.869141 C 192.93635 82.215807 191.7224 81.283646 190.78906 80.070312 C 189.9024 78.810312 189.27372 77.292865 188.90039 75.519531 C 188.52706 73.746198 188.33984 71.716354 188.33984 69.429688 L 188.33984 57.320312 L 179.24023 57.320312 L 179.24023 50.179688 z M 124.7793 56.900391 C 123.84596 56.900391 122.9138 57.040312 121.98047 57.320312 C 121.0938 57.553646 120.32326 57.857135 119.66992 58.230469 L 119.66992 76.080078 C 120.32326 76.220078 120.99922 76.312708 121.69922 76.359375 C 122.44589 76.406042 123.07651 76.429688 123.58984 76.429688 C 125.82984 76.429688 127.60349 75.682786 128.91016 74.189453 C 130.21682 72.649453 130.86914 70.059922 130.86914 66.419922 C 130.86914 63.339922 130.35674 60.982943 129.33008 59.349609 C 128.35008 57.716276 126.83263 56.900391 124.7793 56.900391 z "
       transform="matrix(0.8,0,0,-0.8,0,324)"
       id="path4148" /><rect
       style="opacity:1;fill:none;fill-opacity:1;stroke:none;stroke-width:0;stroke-miterlimit:10;stroke-dasharray:none;stroke-opacity:1"
       id="rect6185"
       width="396"
       height="324"
       x="0"
       y="-324"
       transform="scale(1,-1)" /><path
       style="font-style:normal;font-variant:normal;font-weight:normal;font-stretch:normal;font-size:medium;line-height:125%;font-family:sans-serif;-inkscape-font-specification:sans-serif;letter-spacing:0px;word-spacing:0px;fill:#fffffd;fill-opacity:1;stroke:none;stroke-width:1px;stroke-linecap:butt;stroke-linejoin:miter;stroke-opacity:1"
       d="m 219.77334,36.661377 q -3.2005,0 -4.43477,-0.807195 -1.23428,-0.807195 -1.23428,-2.753959 0,-1.55108 0.91853,-2.469067 0.93288,-0.902159 2.52595,-0.902159 2.19586,0 3.51626,1.709354 1.33473,1.725182 1.33473,4.574104 l 0,0.648922 -2.62642,0 z"
       id="path7532" /></g></svg>