<?xml version="1.0" encoding="UTF-8" standalone="no"?>
<svg
   xmlns:dc="http://purl.org/dc/elements/1.1/"
   xmlns:cc="http://creativecommons.org/ns#"
   xmlns:rdf="http://www.w3.org/1999/02/22-rdf-syntax-ns#"
   xmlns:svg="http://www.w3.org/2000/svg"
   xmlns="http://www.w3.org/2000/svg"
   viewBox="0 0 495 405"
   height="4.5in"
   width="5.5in"
   xml:space="preserve"
   version="1.1"
   id="svg4255"><metadata
     id="metadata4261"><rdf:RDF><cc:Work
         rdf:about=""><dc:format>image/svg+xml</dc:format><dc:type
           rdf:resource="http://purl.org/dc/dcmitype/StillImage" /><dc:title></dc:title></cc:Work></rdf:RDF></metadata><defs
     id="defs4259"><clipPath
       id="clipPath4269"
       clipPathUnits="userSpaceOnUse"><path
         style="clip-rule:evenodd"
         id="path4271"
         d="m 198,306 170,0 c 5.5228,0 10,-4.4771 10,-10 l 0,-268 c 0,-5.5229 -4.4772,-10 -10,-10 L 28,18 c -5.5229,0 -10,4.4771 -10,10 l 0,268 c 0,5.5229 4.4771,10 10,10" /></clipPath></defs><g
     transform="matrix(1.25,0,0,-1.25,0,405)"
     id="g4263"><text
       transform="scale(0.95225336,-1.0501407)"
       id="text4170"
       y="-26.425581"
       x="220.21263"
       style="font-style:normal;font-weight:normal;font-size:30.86673546px;line-height:125%;font-family:sans-serif;letter-spacing:0px;word-spacing:0px;fill:#2d2926;fill-opacity:1;stroke:none;stroke-width:1px;stroke-linecap:butt;stroke-linejoin:miter;stroke-opacity:1"
       xml:space="preserve"><tspan
         style="font-style:normal;font-variant:normal;font-weight:normal;font-stretch:normal;font-family:sans-serif;-inkscape-font-specification:sans-serif;fill:#2d2926;fill-opacity:1"
         y="-26.425581"
         x="220.21263"
         id="tspan4172">a.l.t.<tspan
   id="tspan4176"
   style="font-style:normal;font-variant:normal;font-weight:bold;font-stretch:normal;font-family:sans-serif;-inkscape-font-specification:'sans-serif Bold';fill:#2d2926;fill-opacity:1">space</tspan></tspan></text>
<path
       id="path4148"
       transform="matrix(0.8,0,0,-0.8,0,324)"
       d="m 9.6289062,10.486328 0,90.863282 476.1250038,1.15039 0,-92.013672 -476.1250038,0 z m 372.1914038,23.664063 0,47.599609 c -1.58666,0.513333 -3.52388,0.933099 -5.81054,1.259766 C 373.7231,83.336432 371.4824,83.5 369.28906,83.5 c -5.13333,0 -9.02945,-1.517448 -11.68945,-4.550781 -2.61333,-3.033334 -3.91992,-7.185651 -3.91992,-12.458985 0,-5.366666 1.09768,-9.589922 3.29101,-12.669922 2.24,-3.126666 5.52914,-4.689453 9.86914,-4.689453 1.16667,0 2.30969,0.139922 3.42969,0.419922 1.12,0.233334 2.10141,0.582162 2.94141,1.048828 l 0,-14.980468 8.60937,-1.46875 z m -155.67969,0.699218 c 1.49334,0 2.77628,0.490703 3.84961,1.470703 1.07334,0.98 1.60938,2.333881 1.60938,4.060547 0,1.68 -0.53604,3.008282 -1.60938,3.988282 -1.07333,0.98 -2.35627,1.470703 -3.84961,1.470703 -1.49333,0 -2.77822,-0.490703 -3.85156,-1.470703 -1.02666,-0.98 -1.53906,-2.308282 -1.53906,-3.988282 0,-1.726666 0.5124,-3.080546 1.53906,-4.060547 1.07334,-0.98 2.35823,-1.470703 3.85156,-1.470703 z M 51.699219,38.910156 c 2.473333,0 4.714036,0.279844 6.720703,0.839844 2.006667,0.56 3.733021,1.423177 5.179687,2.589844 1.446667,1.166666 2.544349,2.660469 3.291016,4.480468 0.793333,1.773334 1.189453,3.872162 1.189453,6.298829 0,2.52 -0.514349,4.807994 -1.541016,6.861328 -1.026666,2.053333 -2.729374,3.61612 -5.109374,4.689453 0.793333,1.213333 1.632864,2.567213 2.519531,4.060547 0.886666,1.446666 1.749844,2.985807 2.589843,4.61914 0.84,1.586667 1.634193,3.196745 2.38086,4.830079 0.793333,1.586666 1.469297,3.104114 2.029297,4.550781 l -9.029297,0 c -1.073333,-2.8 -2.33263,-5.484115 -3.779297,-8.050781 -1.4,-2.613334 -2.917448,-5.250157 -4.550781,-7.910157 l -4.480469,0 0,15.960938 -8.609375,0 0,-42.701172 c 0.84,-0.186667 1.750469,-0.348281 2.730469,-0.488281 1.026666,-0.186667 2.053411,-0.304896 3.080078,-0.351563 1.026667,-0.09333 2.00612,-0.162318 2.939453,-0.208984 0.933333,-0.04667 1.749219,-0.07031 2.449219,-0.07031 z m 108.640621,1.259766 0,9.660156 13.79102,0 0,7.140625 -13.79102,0 0,13.298828 c 0,1.213334 0.11628,2.19474 0.34961,2.941407 0.23334,0.746666 0.56047,1.329999 0.98047,1.75 0.42,0.419999 0.93435,0.699843 1.54102,0.839843 0.60666,0.14 1.28263,0.208985 2.02929,0.208985 0.79334,0 1.51659,-0.02365 2.16993,-0.07031 0.7,-0.04667 1.35231,-0.115651 1.95898,-0.208984 0.65333,-0.14 1.3076,-0.327214 1.96094,-0.560547 0.7,-0.233333 1.4469,-0.536823 2.24023,-0.910156 l 1.18946,7.419922 c -1.58667,0.653333 -3.31303,1.12039 -5.17969,1.40039 -1.82,0.28 -3.59365,0.419922 -5.32031,0.419922 -2.00667,0 -3.78032,-0.163568 -5.32032,-0.490234 -1.54,-0.326667 -2.84659,-0.957292 -3.91992,-1.890625 -1.07333,-0.933334 -1.88922,-2.239922 -2.44922,-3.919922 -0.56,-1.726667 -0.83984,-3.965417 -0.83984,-6.71875 l 0,-13.509766 -7.49024,0 0,-7.140625 7.49024,0 0,-8.259766 8.60937,-1.40039 z m 140,0 0,9.660156 13.79102,0 0,7.140625 -13.79102,0 0,13.298828 c 0,1.213334 0.11628,2.19474 0.34961,2.941407 0.23334,0.746666 0.56047,1.329999 0.98047,1.75 0.42,0.42 0.93435,0.699843 1.54102,0.839843 0.60666,0.14 1.28263,0.208985 2.02929,0.208985 0.79334,0 1.51659,-0.02365 2.16993,-0.07031 0.7,-0.04667 1.35231,-0.115651 1.95898,-0.208984 0.65333,-0.14 1.3076,-0.327214 1.96094,-0.560547 0.7,-0.233333 1.4469,-0.536823 2.24023,-0.910156 l 1.18946,7.419922 c -1.58667,0.653333 -3.31303,1.12039 -5.17969,1.40039 -1.82,0.28 -3.59365,0.419922 -5.32031,0.419922 -2.00667,0 -3.78032,-0.163568 -5.32032,-0.490234 -1.54,-0.326667 -2.84659,-0.957292 -3.91992,-1.890625 -1.07333,-0.933334 -1.88922,-2.239922 -2.44922,-3.919922 -0.56,-1.726667 -0.83984,-3.965417 -0.83984,-6.71875 l 0,-13.509766 -7.49024,0 0,-7.140625 7.49024,0 0,-8.259766 8.60937,-1.40039 z M 51.699219,46.400391 c -0.326667,0 -0.722787,0.02365 -1.189453,0.07031 -0.466667,0 -0.933724,0.04534 -1.400391,0.138672 l 0,13.021484 1.890625,0 c 2.94,0 5.062474,-0.56164 6.369141,-1.68164 1.306666,-1.166667 1.960937,-2.798438 1.960937,-4.898438 0,-2.286666 -0.699609,-3.967682 -2.099609,-5.041015 -1.4,-1.073334 -3.244584,-1.609375 -5.53125,-1.609375 z m 37.730469,2.589843 c 4.853333,0 8.540546,1.446511 11.060542,4.339844 2.52,2.846667 3.7793,7.02263 3.7793,12.529297 0,0.56 -0.0236,1.143333 -0.0703,1.75 0,0.606667 -0.0217,1.09737 -0.0684,1.470703 l -21.351563,0 c 0,2.146667 0.886823,3.849375 2.660156,5.109375 1.773333,1.213333 4.061328,1.820313 6.861328,1.820313 1.726667,0 3.358438,-0.187214 4.898438,-0.560547 1.586666,-0.373334 2.916901,-0.745808 3.990231,-1.119141 l 1.19141,7.34961 c -1.49333,0.513333 -3.081719,0.933098 -4.761719,1.259765 -1.68,0.373333 -3.569922,0.560547 -5.669922,0.560547 -2.8,0 -5.318594,-0.350781 -7.558594,-1.050781 -2.193333,-0.746667 -4.083255,-1.81875 -5.669922,-3.21875 -1.54,-1.446667 -2.730312,-3.220313 -3.570312,-5.320313 -0.84,-2.1 -1.259766,-4.549609 -1.259766,-7.349609 0,-2.893333 0.443411,-5.437526 1.330078,-7.630859 0.886667,-2.193334 2.053333,-4.012318 3.5,-5.458985 1.446667,-1.493333 3.102083,-2.614661 4.96875,-3.361328 1.866667,-0.746667 3.780235,-1.119141 5.740235,-1.119141 z m 35.980472,0 c 2.14666,0 4.12921,0.163568 5.94922,0.490235 1.86666,0.326666 3.47674,0.793724 4.83007,1.40039 l -1.33007,7.279297 c -0.79334,-0.233333 -2.02899,-0.605807 -3.70899,-1.11914 -1.68,-0.56 -3.56992,-0.841797 -5.66992,-0.841797 -2.19333,0 -3.68714,0.281797 -4.48047,0.841797 -0.74667,0.513333 -1.11914,1.07302 -1.11914,1.679687 0,0.513333 0.16161,0.978438 0.48828,1.398438 0.37333,0.373333 0.84039,0.724114 1.40039,1.050781 0.60667,0.326667 1.28458,0.653802 2.03125,0.980469 0.79333,0.28 1.63287,0.559843 2.51953,0.839843 1.26,0.42 2.56659,0.887058 3.91992,1.400391 1.35334,0.513333 2.5673,1.165651 3.64063,1.958984 1.12,0.746667 2.02851,1.728073 2.72852,2.941407 0.7,1.166666 1.05078,2.613177 1.05078,4.339843 0,1.353334 -0.2562,2.636276 -0.76954,3.84961 -0.51333,1.213333 -1.37651,2.263724 -2.58984,3.15039 -1.16667,0.886667 -2.70776,1.586276 -4.62109,2.09961 -1.91334,0.513333 -4.27032,0.769531 -7.07031,0.769531 -2.84667,0 -5.27264,-0.327135 -7.2793,-0.980469 -2.00667,-0.653333 -3.61675,-1.236666 -4.83008,-1.75 l 1.33008,-7.208984 c 1.63333,0.653333 3.35969,1.260312 5.17969,1.820312 1.86666,0.56 3.75658,0.839844 5.66992,0.839844 2.1,0 3.71008,-0.139922 4.83008,-0.419922 1.12,-0.326666 1.67968,-0.957291 1.67968,-1.890625 0,-0.606666 -0.18526,-1.121015 -0.55859,-1.541015 -0.32667,-0.42 -0.81737,-0.768828 -1.4707,-1.048829 -0.60667,-0.326666 -1.32993,-0.630156 -2.16993,-0.910156 -0.79333,-0.28 -1.63286,-0.559844 -2.51953,-0.839844 -1.26,-0.373333 -2.54489,-0.793098 -3.85156,-1.259765 -1.30667,-0.513333 -2.49503,-1.143958 -3.56836,-1.890625 -1.07333,-0.746667 -1.96016,-1.680781 -2.66016,-2.800781 -0.69999,-1.166667 -1.05078,-2.613177 -1.05078,-4.339844 0,-1.4 0.2562,-2.706589 0.76954,-3.919922 0.55999,-1.26 1.40148,-2.355729 2.52148,-3.289063 1.16667,-0.979999 2.63487,-1.726901 4.4082,-2.240234 1.77334,-0.56 3.89776,-0.839844 6.3711,-0.839844 z m 143.2207,0 c 1.96,0 3.73169,0.139922 5.31836,0.419922 1.58667,0.28 3.19674,0.747058 4.83008,1.400391 l -1.88868,6.929687 c -0.93333,-0.326666 -1.98372,-0.60651 -3.15039,-0.839843 -1.12,-0.28 -2.56651,-0.419922 -4.33984,-0.419922 -2.05333,0 -3.77969,0.256198 -5.17969,0.769531 -1.35333,0.466667 -2.45101,1.14263 -3.29101,2.029297 -0.84,0.84 -1.44698,1.866745 -1.82031,3.080078 -0.37334,1.213333 -0.5586,2.519922 -0.5586,3.919922 0,3.033333 0.83953,5.413958 2.51953,7.140625 1.72667,1.726667 4.64334,2.589844 8.75,2.589844 1.35334,0 2.75255,-0.09263 4.19922,-0.279297 1.49333,-0.186667 2.84721,-0.490157 4.06055,-0.910157 l 1.25976,7.070313 c -1.21333,0.466667 -2.68349,0.839141 -4.41015,1.119141 -1.72667,0.326666 -3.75651,0.490234 -6.08985,0.490234 -3.36,0 -6.25302,-0.443411 -8.67968,-1.330078 -2.38,-0.886667 -4.34086,-2.100625 -5.88086,-3.640625 -1.54,-1.54 -2.68302,-3.358985 -3.42969,-5.458985 -0.7,-2.1 -1.04883,-4.364348 -1.04883,-6.791015 0,-2.38 0.37248,-4.61875 1.11914,-6.71875 0.74667,-2.1 1.88969,-3.920938 3.42969,-5.460938 1.54,-1.586666 3.47721,-2.822317 5.81055,-3.708984 2.38,-0.933333 5.20403,-1.400391 8.4707,-1.400391 z m 65.79883,0 c 4.85333,0 8.54054,1.446511 11.06054,4.339844 2.52,2.846667 3.7793,7.02263 3.7793,12.529297 0,0.56 -0.0236,1.143333 -0.0703,1.75 0,0.606667 -0.0217,1.09737 -0.0684,1.470703 l -21.35156,0 c 0,2.146667 0.88682,3.849375 2.66015,5.109375 1.77334,1.213333 4.06133,1.820313 6.86133,1.820313 1.72667,0 3.35844,-0.187214 4.89844,-0.560547 1.58667,-0.373334 2.9169,-0.745808 3.99023,-1.119141 l 1.19141,7.34961 c -1.49333,0.513333 -3.08172,0.933098 -4.76172,1.259765 -1.68,0.373333 -3.56992,0.560547 -5.66992,0.560547 -2.8,0 -5.31859,-0.350781 -7.5586,-1.050781 -2.19333,-0.746667 -4.08325,-1.81875 -5.66992,-3.21875 -1.54,-1.446667 -2.73031,-3.220313 -3.57031,-5.320313 -0.84,-2.1 -1.25977,-4.549609 -1.25977,-7.349609 0,-2.893333 0.44342,-5.437526 1.33008,-7.630859 0.88667,-2.193334 2.05334,-4.012318 3.5,-5.458985 1.44667,-1.493333 3.10209,-2.614661 4.96875,-3.361328 1.86667,-0.746667 3.78024,-1.119141 5.74024,-1.119141 z m -136.00977,0.208985 c 0.46667,0 1.12094,0.02365 1.96094,0.07031 0.88667,0.04667 1.81883,0.14125 2.79883,0.28125 0.98,0.09333 1.95945,0.233255 2.93945,0.419922 1.02667,0.14 1.93714,0.348906 2.73047,0.628906 l -1.53906,7.980469 c -0.56,-0.14 -1.23792,-0.279922 -2.03125,-0.419922 -0.74667,-0.14 -1.51526,-0.256276 -2.3086,-0.349609 -0.79333,-0.14 -1.56388,-0.234583 -2.31054,-0.28125 -0.74667,-0.04667 -1.3773,-0.06836 -1.89063,-0.06836 -1.21333,0 -2.40364,0.06898 -3.57031,0.208984 -1.16667,0.09333 -2.35503,0.304193 -3.56836,0.630859 l 0,24.429688 -8.68164,0 0,-30.730469 c 2.28667,-0.84 4.62,-1.515964 7,-2.029297 2.42667,-0.513333 5.2507,-0.771484 8.4707,-0.771484 z m 15.82031,0.630859 17.70899,0 0,20.369141 c 0,1.96 0.35078,3.430156 1.05078,4.410156 0.74667,0.933333 1.96063,1.400391 3.64062,1.400391 0.79334,0 1.74915,-0.09263 2.86915,-0.279297 1.12,-0.233334 2.37929,-0.676745 3.77929,-1.330078 l 1.1211,6.929687 c -1.77334,0.84 -3.45435,1.399688 -5.04102,1.679688 -1.54,0.326666 -2.96286,0.490234 -4.26953,0.490234 -2.24,0 -4.12992,-0.327135 -5.66992,-0.980469 -1.49334,-0.653333 -2.70729,-1.585495 -3.64063,-2.798828 -0.88666,-1.26 -1.51534,-2.777448 -1.88867,-4.550781 -0.37333,-1.773333 -0.56055,-3.803177 -0.56055,-6.089844 l 0,-12.109375 -9.09961,0 0,-7.140625 z M 89.570312,56.199219 c -1.119999,0 -2.099453,0.187213 -2.939453,0.560547 -0.793333,0.373333 -1.47125,0.887682 -2.03125,1.541015 -0.513333,0.653334 -0.933099,1.400235 -1.259765,2.240235 -0.28,0.84 -0.467214,1.703177 -0.560547,2.589843 l 13.160156,0 c 0,-0.886666 -0.116276,-1.728151 -0.349609,-2.521484 -0.233334,-0.84 -0.605808,-1.586901 -1.119141,-2.240234 -0.513333,-0.653334 -1.167604,-1.16573 -1.960937,-1.539063 -0.793334,-0.42 -1.772787,-0.630859 -2.939454,-0.630859 z m 244.999998,0 c -1.12,0 -2.09945,0.187213 -2.93945,0.560547 -0.79333,0.373333 -1.47125,0.887682 -2.03125,1.541015 -0.51333,0.653334 -0.9331,1.400235 -1.25977,2.240235 -0.28,0.84 -0.46721,1.703177 -0.56054,2.589843 l 13.16015,0 c 0,-0.886666 -0.11627,-1.728151 -0.34961,-2.521484 -0.23333,-0.84 -0.6058,-1.586901 -1.11914,-2.240234 -0.51333,-0.653334 -1.1676,-1.16573 -1.96093,-1.539063 -0.79334,-0.42 -1.77279,-0.630859 -2.93946,-0.630859 z m 33.74024,0.351562 c -2.05334,0 -3.54714,0.815886 -4.48047,2.449219 -0.93334,1.633333 -1.40039,3.990312 -1.40039,7.070312 0,2.940001 0.53604,5.342318 1.60937,7.208985 1.12,1.866667 2.89365,2.800781 5.32032,2.800781 0.69999,0 1.35427,-0.02365 1.96093,-0.07031 0.60667,-0.04667 1.23729,-0.115651 1.89063,-0.208985 l 0,-17.919922 c -0.65334,-0.373333 -1.40024,-0.676823 -2.24024,-0.910156 -0.84,-0.28 -1.72682,-0.419922 -2.66015,-0.419922 z"
       style="fill:#fedd00;fill-opacity:1;fill-rule:evenodd;stroke:none;stroke-width:1px;stroke-linecap:butt;stroke-linejoin:miter;stroke-opacity:1" /><rect
       transform="scale(1,-1)"
       y="-324"
       x="0"
       height="324"
       width="396"
       id="rect6185"
       style="opacity:1;fill:none;fill-opacity:1;stroke:none;stroke-width:0;stroke-miterlimit:10;stroke-dasharray:none;stroke-opacity:1" /></g></svg>