<?xml version="1.0" encoding="UTF-8" standalone="no"?>
<svg
   xmlns:dc="http://purl.org/dc/elements/1.1/"
   xmlns:cc="http://creativecommons.org/ns#"
   xmlns:rdf="http://www.w3.org/1999/02/22-rdf-syntax-ns#"
   xmlns:svg="http://www.w3.org/2000/svg"
   xmlns="http://www.w3.org/2000/svg"
   viewBox="0 0 495 405"
   height="405"
   width="495"
   xml:space="preserve"
   version="1.1"
   id="svg4255"><metadata
     id="metadata4261"><rdf:RDF><cc:Work
         rdf:about=""><dc:format>image/svg+xml</dc:format><dc:type
           rdf:resource="http://purl.org/dc/dcmitype/StillImage" /><dc:title></dc:title></cc:Work></rdf:RDF></metadata><defs
     id="defs4259"><clipPath
       id="clipPath4269"
       clipPathUnits="userSpaceOnUse"><path
         style="clip-rule:evenodd"
         id="path4271"
         d="m 198,306 170,0 c 5.5228,0 10,-4.4771 10,-10 l 0,-268 c 0,-5.5229 -4.4772,-10 -10,-10 L 28,18 c -5.5229,0 -10,4.4771 -10,10 l 0,268 c 0,5.5229 4.4771,10 10,10" /></clipPath></defs><g
     transform="matrix(1.25,0,0,-1.25,0,405)"
     id="g4263"><text
       transform="scale(0.95225336,-1.0501407)"
       id="text4170"
       y="-26.425581"
       x="220.21263"
       style="font-style:normal;font-weight:normal;font-size:30.86673546px;line-height:125%;font-family:sans-serif;letter-spacing:0px;word-spacing:0px;fill:#2d2926;fill-opacity:1;stroke:none;stroke-width:1px;stroke-linecap:butt;stroke-linejoin:miter;stroke-opacity:1"
       xml:space="preserve"><tspan
         style="font-style:normal;font-variant:normal;font-weight:normal;font-stretch:normal;font-family:sans-serif;-inkscape-font-specification:sans-serif;fill:#2d2926;fill-opacity:1"
         y="-26.425581"
         x="220.21263"
         id="tspan4172">a.l.t.<tspan
   id="tspan4176"
   style="font-style:normal;font-variant:normal;font-weight:bold;font-stretch:normal;font-family:sans-serif;-inkscape-font-specification:'sans-serif Bold';fill:#2d2926;fill-opacity:1">space</tspan></tspan></text>
<path
       id="path4148"
       transform="matrix(0.8,0,0,-0.8,0,324)"
       d="M 9.6289062 10.486328 L 9.6289062 101.34961 L 485.75391 102.5 L 485.75391 10.486328 L 9.6289062 10.486328 z M 121.14062 34.849609 C 122.63396 34.849609 123.9169 35.340312 124.99023 36.320312 C 126.06357 37.300312 126.59961 38.654193 126.59961 40.380859 C 126.59961 42.060859 126.06357 43.389141 124.99023 44.369141 C 123.9169 45.349141 122.63396 45.839844 121.14062 45.839844 C 119.64729 45.839844 118.3624 45.349141 117.28906 44.369141 C 116.2624 43.389141 115.75 42.060859 115.75 40.380859 C 115.75 38.654193 116.2624 37.300312 117.28906 36.320312 C 118.3624 35.340312 119.64729 34.849609 121.14062 34.849609 z M 52.400391 38.910156 C 57.907057 38.910156 62.177604 40.053177 65.210938 42.339844 C 68.244271 44.579844 69.759766 48.267057 69.759766 53.400391 C 69.759766 58.580391 68.220625 62.336589 65.140625 64.669922 C 62.107292 66.956589 57.789453 68.099609 52.189453 68.099609 L 49.109375 68.099609 L 49.109375 82.730469 L 40.5 82.730469 L 40.5 39.960938 C 41.34 39.774271 42.274115 39.610703 43.300781 39.470703 C 44.374115 39.330703 45.446198 39.23612 46.519531 39.189453 C 47.592865 39.09612 48.643255 39.027135 49.669922 38.980469 C 50.696589 38.933802 51.607057 38.910156 52.400391 38.910156 z M 230.33984 40.169922 L 230.33984 49.830078 L 244.13086 49.830078 L 244.13086 56.970703 L 230.33984 56.970703 L 230.33984 70.269531 C 230.33984 71.482865 230.45612 72.464271 230.68945 73.210938 C 230.92279 73.957604 231.24992 74.540937 231.66992 74.960938 C 232.08992 75.380937 232.60427 75.660781 233.21094 75.800781 C 233.8176 75.940781 234.49357 76.009766 235.24023 76.009766 C 236.03357 76.009766 236.75682 75.98612 237.41016 75.939453 C 238.11016 75.892786 238.76247 75.823802 239.36914 75.730469 C 240.02247 75.590469 240.67674 75.403255 241.33008 75.169922 C 242.03008 74.936589 242.77698 74.633099 243.57031 74.259766 L 244.75977 81.679688 C 243.1731 82.333021 241.44674 82.800078 239.58008 83.080078 C 237.76008 83.360078 235.98643 83.5 234.25977 83.5 C 232.2531 83.5 230.47945 83.336432 228.93945 83.009766 C 227.39945 82.683099 226.09286 82.052474 225.01953 81.119141 C 223.9462 80.185807 223.13031 78.879219 222.57031 77.199219 C 222.01031 75.472552 221.73047 73.233802 221.73047 70.480469 L 221.73047 56.970703 L 214.24023 56.970703 L 214.24023 49.830078 L 221.73047 49.830078 L 221.73047 41.570312 L 230.33984 40.169922 z M 53.380859 46.400391 C 52.867526 46.400391 52.144271 46.424036 51.210938 46.470703 C 50.324271 46.470703 49.622708 46.516042 49.109375 46.609375 L 49.109375 60.609375 L 52.609375 60.609375 C 55.362708 60.609375 57.439844 60.073333 58.839844 59 C 60.239844 57.88 60.939453 55.990078 60.939453 53.330078 C 60.939453 50.810078 60.239844 49.036432 58.839844 48.009766 C 57.48651 46.936432 55.667526 46.400391 53.380859 46.400391 z M 193.51953 48.990234 C 196.2262 48.990234 198.4669 49.31737 200.24023 49.970703 C 202.06023 50.57737 203.50674 51.464193 204.58008 52.630859 C 205.65341 53.750859 206.42396 55.150078 206.89062 56.830078 C 207.35729 58.463411 207.58984 60.306042 207.58984 62.359375 L 207.58984 81.960938 C 206.32984 82.240937 204.46357 82.56612 201.99023 82.939453 C 199.5169 83.312786 196.74016 83.5 193.66016 83.5 C 191.56016 83.5 189.64659 83.312786 187.91992 82.939453 C 186.23992 82.56612 184.79341 81.959141 183.58008 81.119141 C 182.36674 80.232474 181.43263 79.113099 180.7793 77.759766 C 180.12596 76.359766 179.80078 74.657057 179.80078 72.650391 C 179.80078 70.737057 180.17326 69.126979 180.91992 67.820312 C 181.66659 66.513646 182.66969 65.463255 183.92969 64.669922 C 185.18969 63.876589 186.6362 63.316901 188.26953 62.990234 C 189.90286 62.616901 191.60753 62.429688 193.38086 62.429688 C 195.62086 62.429688 197.60341 62.616901 199.33008 62.990234 L 199.33008 61.939453 C 199.33008 60.30612 198.81573 58.954193 197.78906 57.880859 C 196.7624 56.760859 194.9907 56.199219 192.4707 56.199219 C 190.83737 56.199219 189.25094 56.317448 187.71094 56.550781 C 186.2176 56.784115 185.00365 57.063958 184.07031 57.390625 L 182.88086 50.460938 C 183.95419 50.087604 185.46969 49.760469 187.42969 49.480469 C 189.38969 49.153802 191.41953 48.990234 193.51953 48.990234 z M 264.42969 48.990234 C 269.28302 48.990234 272.97023 50.436745 275.49023 53.330078 C 278.01023 56.176745 279.26953 60.352708 279.26953 65.859375 C 279.26953 66.419375 279.24589 67.002708 279.19922 67.609375 C 279.19922 68.216042 279.17753 68.706745 279.13086 69.080078 L 257.7793 69.080078 C 257.7793 71.226745 258.66612 72.929453 260.43945 74.189453 C 262.21279 75.402786 264.50078 76.009766 267.30078 76.009766 C 269.02745 76.009766 270.65922 75.822552 272.19922 75.449219 C 273.78589 75.075885 275.11612 74.703411 276.18945 74.330078 L 277.38086 81.679688 C 275.88753 82.193021 274.29914 82.612786 272.61914 82.939453 C 270.93914 83.312786 269.04922 83.5 266.94922 83.5 C 264.14922 83.5 261.63063 83.149219 259.39062 82.449219 C 257.19729 81.702552 255.30737 80.630469 253.7207 79.230469 C 252.1807 77.783802 250.99039 76.010156 250.15039 73.910156 C 249.31039 71.810156 248.89062 69.360547 248.89062 66.560547 C 248.89062 63.667214 249.33404 61.123021 250.2207 58.929688 C 251.10737 56.736354 252.27404 54.91737 253.7207 53.470703 C 255.16737 51.97737 256.82279 50.856042 258.68945 50.109375 C 260.55612 49.362708 262.46969 48.990234 264.42969 48.990234 z M 93.419922 49.199219 C 93.886589 49.199219 94.540859 49.222865 95.380859 49.269531 C 96.267526 49.316198 97.199688 49.410781 98.179688 49.550781 C 99.159688 49.644115 100.13914 49.784036 101.11914 49.970703 C 102.14581 50.110703 103.05628 50.319609 103.84961 50.599609 L 102.31055 58.580078 C 101.75055 58.440078 101.07263 58.300156 100.2793 58.160156 C 99.53263 58.020156 98.764036 57.90388 97.970703 57.810547 C 97.17737 57.670547 96.406823 57.575964 95.660156 57.529297 C 94.91349 57.48263 94.282865 57.460938 93.769531 57.460938 C 92.556198 57.460938 91.365885 57.529922 90.199219 57.669922 C 89.032552 57.763255 87.844193 57.974115 86.630859 58.300781 L 86.630859 82.730469 L 77.949219 82.730469 L 77.949219 52 C 80.235885 51.16 82.569219 50.484036 84.949219 49.970703 C 87.375885 49.45737 90.199922 49.199219 93.419922 49.199219 z M 109.24023 49.830078 L 126.94922 49.830078 L 126.94922 70.199219 C 126.94922 72.159219 127.3 73.629375 128 74.609375 C 128.74667 75.542708 129.96063 76.009766 131.64062 76.009766 C 132.43396 76.009766 133.38977 75.917135 134.50977 75.730469 C 135.62977 75.497135 136.88906 75.053724 138.28906 74.400391 L 139.41016 81.330078 C 137.63682 82.170078 135.95581 82.729766 134.36914 83.009766 C 132.82914 83.336432 131.40628 83.5 130.09961 83.5 C 127.85961 83.5 125.96969 83.172865 124.42969 82.519531 C 122.93635 81.866198 121.7224 80.934036 120.78906 79.720703 C 119.9024 78.460703 119.27372 76.943255 118.90039 75.169922 C 118.52706 73.396589 118.33984 71.366745 118.33984 69.080078 L 118.33984 56.970703 L 109.24023 56.970703 L 109.24023 49.830078 z M 142.69922 49.830078 L 151.73047 49.830078 C 152.15047 51.603411 152.63922 53.493333 153.19922 55.5 C 153.80589 57.506667 154.43651 59.53651 155.08984 61.589844 C 155.74318 63.59651 156.39745 65.55737 157.05078 67.470703 C 157.75078 69.384036 158.4031 71.134036 159.00977 72.720703 C 159.61643 71.134036 160.2924 69.384036 161.03906 67.470703 C 161.78573 65.55737 162.51094 63.59651 163.21094 61.589844 C 163.9576 59.53651 164.65721 57.506667 165.31055 55.5 C 166.01055 53.493333 166.57023 51.603411 166.99023 49.830078 L 175.74023 49.830078 C 173.78023 56.456745 171.61047 62.569922 169.23047 68.169922 C 166.85047 73.723255 164.60977 78.577135 162.50977 82.730469 L 155.30078 82.730469 C 153.20078 78.577135 151.05271 73.723255 148.85938 68.169922 C 146.71271 62.569922 144.65922 56.456745 142.69922 49.830078 z M 264.57031 56.199219 C 263.45031 56.199219 262.47086 56.386432 261.63086 56.759766 C 260.83753 57.133099 260.15961 57.647448 259.59961 58.300781 C 259.08628 58.954115 258.66651 59.701016 258.33984 60.541016 C 258.05984 61.381016 257.87263 62.244193 257.7793 63.130859 L 270.93945 63.130859 C 270.93945 62.244193 270.82318 61.402708 270.58984 60.609375 C 270.35651 59.769375 269.98404 59.022474 269.4707 58.369141 C 268.95737 57.715807 268.3031 57.203411 267.50977 56.830078 C 266.71643 56.410078 265.73698 56.199219 264.57031 56.199219 z M 195.13086 68.449219 C 194.24419 68.449219 193.37906 68.520156 192.53906 68.660156 C 191.69906 68.75349 190.95411 68.940703 190.30078 69.220703 C 189.69411 69.500703 189.20341 69.896823 188.83008 70.410156 C 188.45674 70.92349 188.26953 71.599453 188.26953 72.439453 C 188.26953 73.932786 188.82922 75.006823 189.94922 75.660156 C 191.06922 76.266823 192.51573 76.570312 194.28906 76.570312 L 197.01953 76.570312 C 197.9062 76.523646 198.67674 76.452708 199.33008 76.359375 L 199.33008 68.800781 C 198.77008 68.707448 198.09411 68.63651 197.30078 68.589844 C 196.50745 68.49651 195.78419 68.449219 195.13086 68.449219 z "
       style="fill:#ef3340;fill-opacity:1;fill-rule:evenodd;stroke:none;stroke-width:1px;stroke-linecap:butt;stroke-linejoin:miter;stroke-opacity:1" /><rect
       transform="scale(1,-1)"
       y="-324"
       x="0"
       height="324"
       width="396"
       id="rect6185"
       style="opacity:1;fill:none;fill-opacity:1;stroke:none;stroke-width:0;stroke-miterlimit:10;stroke-dasharray:none;stroke-opacity:1" /></g></svg>