<?xml version="1.0" encoding="UTF-8" standalone="no"?>
<svg
   xmlns:dc="http://purl.org/dc/elements/1.1/"
   xmlns:cc="http://creativecommons.org/ns#"
   xmlns:rdf="http://www.w3.org/1999/02/22-rdf-syntax-ns#"
   xmlns:svg="http://www.w3.org/2000/svg"
   xmlns="http://www.w3.org/2000/svg"
   xmlns:sodipodi="http://sodipodi.sourceforge.net/DTD/sodipodi-0.dtd"
   xmlns:inkscape="http://www.inkscape.org/namespaces/inkscape"
   id="svg4636"
   version="1.1"
   viewBox="0 0 50.793254 50.799019"
   height="1.9999614in"
   width="1.9997345in"
   sodipodi:docname="ALTSpace-Sticker-Mono_2x2.svg"
   inkscape:version="0.92.5 (2060ec1f9f, 2020-04-08)">
  <sodipodi:namedview
     pagecolor="#ffffff"
     bordercolor="#666666"
     borderopacity="1"
     objecttolerance="10"
     gridtolerance="10"
     guidetolerance="10"
     inkscape:pageopacity="0"
     inkscape:pageshadow="2"
     inkscape:window-width="1920"
     inkscape:window-height="1007"
     id="namedview839"
     showgrid="false"
     inkscape:document-units="mm"
     inkscape:zoom="2.8398133"
     inkscape:cx="32.065332"
     inkscape:cy="116.22569"
     inkscape:window-x="0"
     inkscape:window-y="0"
     inkscape:window-maximized="1"
     inkscape:current-layer="svg4636"
     units="in"
     fit-margin-top="0"
     fit-margin-left="0"
     fit-margin-right="0"
     fit-margin-bottom="0" />
  <defs
     id="defs4630" />
  <metadata
     id="metadata4633">
    <rdf:RDF>
      <cc:Work
         rdf:about="">
        <dc:format>image/svg+xml</dc:format>
        <dc:type
           rdf:resource="http://purl.org/dc/dcmitype/StillImage" />
        <dc:title></dc:title>
      </cc:Work>
    </rdf:RDF>
  </metadata>
  <g
     transform="matrix(0.57798518,0,0,0.57053729,-23.080386,-33.387652)"
     id="layer1">
    <polygon
       style="fill:none;stroke:#000000;stroke-opacity:1"
       id="polygon8"
       points="309.6,636.2 331.7,598 188.5,349.8 67.5,559.3 111.8,559.3 188.5,426.5 "
       class="a"
       transform="matrix(0.26458333,0,0,0.26458333,39.897275,-33.766967)" />
    <polygon
       style="fill:none;stroke:#000000;stroke-opacity:1"
       id="polygon10"
       points="188.5,349.9 144.3,349.9 1,598 242.9,598 220.8,559.6 67.4,559.6 "
       class="b"
       transform="matrix(0.26458333,0,0,0.26458333,39.897275,-33.766967)" />
    <polygon
       style="fill:#000000;fill-opacity:1;stroke:#000000;stroke-opacity:1"
       id="polygon12"
       points="1,598 23.1,636.2 309.6,636.2 188.7,426.7 166.5,465.1 243.2,598 "
       class="c"
       transform="matrix(0.26458333,0,0,0.26458333,39.897275,-33.766967)" />
    <path
       style="fill:#000000;fill-opacity:1;stroke:#000000;stroke-width:0.26458332;stroke-opacity:1"
       id="path20"
       d="m 58.206441,117.072 h -2.16958 l 1.05833,-1.85209 h 6.53521 l -1.05833,1.85209 h -2.16959 l -3.6777,6.35 h -2.19605 z"
       inkscape:connector-curvature="0" />
    <path
       style="fill:#000000;fill-opacity:1;stroke:#000000;stroke-width:0.26458332;stroke-opacity:1"
       id="path22"
       d="m 65.164981,115.24637 h 2.19605 l -4.73605,8.20208 h -2.19604 z"
       inkscape:connector-curvature="0" />
    <path
       style="fill:#000000;fill-opacity:1;stroke:#000000;stroke-width:0.26458332;stroke-opacity:1"
       id="path24"
       d="m 69.609981,115.14054 c 0.0529,-0.0794 0.10584,-0.0794 0.10584,0 l 1.37583,4.41854 6.40292,-4.41854 c 0.0794,-0.0529 0.13229,-0.0794 0.10583,0 l -4.28625,8.28146 h -2.14312 l 1.82562,-3.4925 -3.41312,2.38125 c -0.0529,0.0265 -0.10584,0.0265 -0.10584,0 l -0.76729,-2.38125 -2.2225,3.51895 h -2.14312 z"
       inkscape:connector-curvature="0" />
    <path
       style="fill:#000000;fill-opacity:1;stroke:#000000;stroke-width:0.26458332;stroke-opacity:1"
       id="path26"
       d="m 79.743531,115.24637 h 5.74145 l -1.05833,1.85208 h -3.54542 l -0.76729,1.34938 h 2.96334 l -1.00542,1.74625 h -2.96333 l -0.82021,1.40229 h 3.73062 l -1.05833,1.85208 h -5.92667 z"
       inkscape:connector-curvature="0" />
    <path
       style="fill:#ffffff;fill-opacity:1;stroke:#000000;stroke-width:0.26458332;stroke-opacity:1"
       id="path28"
       d="m 71.594362,132.12679 0.89958,-1.19063 c 0.68792,0.50271 1.40229,0.89959 2.2225,0.89959 0.66146,0 0.92604,-0.18521 0.66146,-0.66146 -0.21167,-0.34396 -0.55562,-0.52917 -1.21708,-0.68792 l -1.16417,-0.3175 c -1.42875,-0.39687 -2.67229,-1.11125 -3.46604,-2.46062 -0.92604,-1.61396 -0.0794,-2.43417 1.37583,-2.43417 a 5.9422771,5.9422771 0 0 1 3.41313,1.08479 l -0.50271,1.32292 a 3.2215667,3.2215667 0 0 0 -1.77271,-0.58209 c -0.52917,0 -0.66146,0.23813 -0.47625,0.55563 0.18521,0.3175 0.44979,0.47625 0.92604,0.60854 l 1.29646,0.37042 c 1.95792,0.52916 2.96333,1.32291 3.62479,2.48708 0.87313,1.50813 0.55563,2.59292 -1.61396,2.59292 a 7.4083333,7.4083333 0 0 1 -4.20687,-1.5875 z"
       class="g"
       inkscape:connector-curvature="0" />
    <path
       style="fill:#ffffff;fill-opacity:1;stroke:#000000;stroke-width:0.26458332;stroke-opacity:1"
       id="path30"
       d="m 82.574572,133.52908 h -2.19604 l -4.73605,-8.20208 h 3.3073 c 2.0902,0 3.96875,1.27 4.9477,2.93687 0.97896,1.66688 0.52917,2.91042 -1.56104,2.91042 h -1.11125 z m -1.40229,-4.18042 c 0.74083,0 0.92604,-0.39687 0.52916,-1.08479 a 2.0745979,2.0745979 0 0 0 -1.77271,-1.08479 h -1.00541 l 1.24354,2.16958 z"
       class="g"
       inkscape:connector-curvature="0" />
    <path
       style="fill:#ffffff;fill-opacity:1;stroke:#000000;stroke-width:0.26458332;stroke-opacity:1"
       id="path32"
       d="m 91.517482,132.55012 h -2.8575 l 0.15875,0.97896 h -2.14312 l -0.82021,-8.33438 c 0,-0.0794 0.0529,-0.0794 0.13229,0 l 8.78417,8.33438 h -2.27542 z m -3.09562,-1.5875 h 1.48167 l -1.74625,-1.74625 z"
       class="g"
       inkscape:connector-curvature="0" />
    <path
       style="fill:#ffffff;fill-opacity:1;stroke:#000000;stroke-width:0.26458332;stroke-opacity:1"
       id="path34"
       d="m 99.163942,133.63491 c -2.30187,0 -5.26521,-1.74625 -6.69396,-4.20687 -1.42875,-2.46063 -0.47625,-4.18042 1.7198,-4.18042 1.7727,0 3.28083,0.74083 4.55083,1.74625 l -1.00542,1.11125 a 3.7861875,3.7861875 0 0 0 -2.40771,-0.97896 c -1.21708,0 -1.34937,1.00542 -0.60854,2.30188 0.74084,1.29646 2.09021,2.30187 3.33375,2.30187 1.05834,0 1.29646,-0.47625 1.27,-1.13771 l 2.301878,1.0848 c 0,1.37583 -0.79375,1.95791 -2.460628,1.95791 z"
       class="g"
       inkscape:connector-curvature="0" />
    <path
       style="fill:#ffffff;fill-opacity:1;stroke:#000000;stroke-width:0.26458332;stroke-opacity:1"
       id="path36"
       d="m 99.296232,125.35345 h 5.741458 l 1.05834,1.85209 h -3.54542 l 0.76729,1.34937 h 2.96333 l 1.00542,1.74625 h -2.96333 l 0.82021,1.40229 h 3.73062 l 1.05833,1.85209 h -5.92666 z"
       class="g"
       inkscape:connector-curvature="0" />
    <path
       style="fill:#000000;fill-opacity:1;stroke:#000000;stroke-width:0.26458332;stroke-opacity:1"
       id="path38"
       d="m 95.142281,69.976162 1.08479,1.905 -3.67771,6.35 1.74625,3.01625 -1.05833,1.85208 -2.83105,-4.92125 z"
       inkscape:connector-curvature="0" />
    <path
       style="fill:#000000;fill-opacity:1;stroke:#000000;stroke-width:0.26458332;stroke-opacity:1"
       id="path40"
       d="m 98.740611,76.220332 1.084782,1.905 -4.736032,8.20208 -1.08479,-1.905 z"
       inkscape:connector-curvature="0" />
    <path
       style="fill:#000000;fill-opacity:1;stroke:#000000;stroke-width:0.26458332;stroke-opacity:1"
       id="path42"
       d="m 100.56622,90.005122 -0.820197,-1.40229 0.978947,-1.69334 1.79917,3.09563 -2.03729,3.54541 c -0.740827,-0.0265 -1.534574,-0.37041 -2.434159,-1.95791 -1.21708,-2.09021 -1.19062,-5.55625 0.21167,-8.01688 1.428742,-2.46062 3.413109,-2.46062 4.603739,-0.42333 a 7.0114583,7.0114583 0 0 1 0.79375,4.31271 h -1.53458 c 0.10583,-0.87313 0.0265,-1.74625 -0.39688,-2.43417 -0.66146,-1.16417 -1.61396,-0.79375 -2.354784,0.50271 -0.740825,1.29646 -0.978955,3.01625 -0.26458,4.25979 0.396867,0.68792 0.714367,0.92604 0.978944,1.05833 z"
       inkscape:connector-curvature="0" />
    <path
       style="fill:#000000;fill-opacity:1;stroke:#000000;stroke-width:0.26458332;stroke-opacity:1"
       id="path44"
       d="m 107.92164,92.095332 1.08479,1.905 -4.73604,8.202068 -1.08479,-1.905 1.85208,-3.201448 -1.42875,-2.46062 -1.85208,3.20145 -1.08479,-1.905 4.73604,-8.20208 1.08479,1.905 -1.82562,3.14854 1.42875,2.46063 z"
       inkscape:connector-curvature="0" />
    <path
       style="fill:#000000;fill-opacity:1;stroke:#000000;stroke-width:0.26458332;stroke-opacity:1"
       id="path46"
       d="m 109.77372,99.000946 -1.08479,-1.878534 1.05834,-1.85208 3.25437,5.662068 -1.05833,1.85209 -1.08479,-1.87855 -3.67771,6.35 -1.08479,-1.905 z"
       inkscape:connector-curvature="0" />
    <path
       style="fill:#000000;fill-opacity:1;stroke:#000000;stroke-width:0.26458332;stroke-opacity:1"
       id="path48"
       d="m 71.356235,86.909493 -1.42875,2.46063 0.92604,0.34396 -1.08479,1.85208 -7.64646,-3.46604 c -0.0794,-0.0265 -0.0529,-0.10584 0.0794,-0.13229 l 11.61521,-3.43959 -1.13771,1.95792 z m -2.93687,1.87854 0.74083,-1.27 -2.38125,0.635 z"
       inkscape:connector-curvature="0" />
    <path
       style="fill:#000000;fill-opacity:1;stroke:#000000;stroke-width:0.26458332;stroke-opacity:1"
       id="path50"
       d="m 65.032695,83.443453 1.08479,-1.905 h 9.47208 l -1.08479,1.905 z"
       inkscape:connector-curvature="0" />
    <path
       style="fill:#000000;fill-opacity:1;stroke:#000000;stroke-width:0.26458332;stroke-opacity:1"
       id="path52"
       d="m 77.653315,77.966583 -1.08479,1.905 h -9.47208 l 1.66687,-2.8575 a 5.7861729,5.7861729 0 0 1 4.97417,-2.80459 c 1.24354,0 1.98438,0.44979 2.01083,1.29646 l 4.20688,-1.48167 -1.19063,2.06375 -3.6777,1.24355 -0.37042,0.635 z m -4.39208,-0.87313 c 0.37042,-0.635 0.13229,-0.97896 -0.635,-0.97896 a 1.9679708,1.9679708 0 0 0 -1.77271,0.97896 l -0.50271,0.87313 h 2.40771 z"
       inkscape:connector-curvature="0" />
  </g>
  <rect
     style="opacity:1;fill:none;fill-opacity:1;stroke:#000000;stroke-width:0.09456699;stroke-miterlimit:4;stroke-dasharray:none;stroke-opacity:1"
     id="rect841"
     width="47.735123"
     height="7.2921677"
     x="1.5702429"
     y="43.459568"
     ry="2.2552412" />
  <flowRoot
     xml:space="preserve"
     id="flowRoot843"
     style="font-style:normal;font-variant:normal;font-weight:bold;font-stretch:normal;font-size:10px;line-height:125%;font-family:'Ubuntu Mono';-inkscape-font-specification:'Ubuntu Mono Bold';letter-spacing:0px;word-spacing:0px;fill:#000000;fill-opacity:1;stroke:none;stroke-width:1px;stroke-linecap:butt;stroke-linejoin:miter;stroke-opacity:1"
     transform="matrix(0.26458334,0,0,0.26458334,-24.603229,-19.906618)"><flowRegion
       id="flowRegion845"
       style="font-style:normal;font-variant:normal;font-weight:bold;font-stretch:normal;font-family:'Ubuntu Mono';-inkscape-font-specification:'Ubuntu Mono Bold'"><rect
         id="rect847"
         width="279.59586"
         height="36.622128"
         x="30.987953"
         y="296.12155"
         style="font-style:normal;font-variant:normal;font-weight:bold;font-stretch:normal;font-family:'Ubuntu Mono';-inkscape-font-specification:'Ubuntu Mono Bold'" /></flowRegion><flowPara
       id="flowPara849" /></flowRoot>  <text
     xml:space="preserve"
     style="font-style:normal;font-variant:normal;font-weight:bold;font-stretch:normal;font-size:2.64583349px;line-height:125%;font-family:'Ubuntu Mono';-inkscape-font-specification:'Ubuntu Mono Bold';letter-spacing:0px;word-spacing:0px;fill:#000000;fill-opacity:1;stroke:none;stroke-width:0.26458335px;stroke-linecap:butt;stroke-linejoin:miter;stroke-opacity:1"
     x="-9.3234682"
     y="60.864613"
     id="text853"><tspan
       sodipodi:role="line"
       id="tspan851"
       x="-9.3234682"
       y="63.332359"
       style="font-style:normal;font-variant:normal;font-weight:bold;font-stretch:normal;font-family:'Ubuntu Mono';-inkscape-font-specification:'Ubuntu Mono Bold';stroke-width:0.26458335px" /></text>
  <g
     aria-label="www.altspaceseattle.com"
     transform="matrix(0.15292525,0,0,0.15095466,0.92073643,1.1875345)"
     style="font-style:normal;font-weight:normal;font-size:10px;line-height:125%;font-family:sans-serif;letter-spacing:0px;word-spacing:0px;fill:#000000;fill-opacity:1;stroke:none;stroke-width:1px;stroke-linecap:butt;stroke-linejoin:miter;stroke-opacity:1"
     id="flowRoot855">
    <path
       d="m 30.265109,310.46079 q -0.264,-0.744 -0.504,-1.368 -0.216,-0.624 -0.432,-1.2 -0.192,-0.6 -0.408,-1.224 -0.192,-0.648 -0.408,-1.416 -0.24,0.768 -0.432,1.392 -0.192,0.6 -0.408,1.2 -0.192,0.6 -0.408,1.224 -0.216,0.624 -0.528,1.392 h -2.232 q -0.288,-1.056 -0.552,-2.328 -0.24,-1.296 -0.456,-2.736 -0.216,-1.464 -0.384,-3.024 -0.168,-1.56 -0.312,-3.192 h 2.52 q 0.096,2.088 0.192,4.08 0.12,1.992 0.408,4.104 0.312,-0.912 0.528,-1.68 0.24,-0.792 0.408,-1.488 0.192,-0.72 0.336,-1.368 0.168,-0.672 0.336,-1.368 h 2.136 q 0.144,0.696 0.288,1.368 0.168,0.648 0.336,1.368 0.192,0.696 0.384,1.488 0.216,0.768 0.504,1.68 0.144,-1.104 0.24,-2.112 0.096,-1.008 0.144,-1.992 0.072,-1.008 0.096,-1.992 0.048,-1.008 0.096,-2.088 h 2.52 q -0.264,3.288 -0.744,6.192 -0.456,2.904 -1.032,5.088 z"
       style="font-style:normal;font-variant:normal;font-weight:bold;font-stretch:normal;font-size:24px;font-family:'Ubuntu Mono';-inkscape-font-specification:'Ubuntu Mono Bold'"
       id="path882"
       inkscape:connector-curvature="0" />
    <path
       d="m 42.265064,310.46079 q -0.264,-0.744 -0.504,-1.368 -0.216,-0.624 -0.432,-1.2 -0.192,-0.6 -0.408,-1.224 -0.192,-0.648 -0.408,-1.416 -0.24,0.768 -0.432,1.392 -0.192,0.6 -0.408,1.2 -0.192,0.6 -0.408,1.224 -0.216,0.624 -0.528,1.392 h -2.232 q -0.288,-1.056 -0.552,-2.328 -0.24,-1.296 -0.456,-2.736 -0.216,-1.464 -0.384,-3.024 -0.168,-1.56 -0.312,-3.192 h 2.52 q 0.096,2.088 0.192,4.08 0.12,1.992 0.408,4.104 0.312,-0.912 0.528,-1.68 0.24,-0.792 0.408,-1.488 0.192,-0.72 0.336,-1.368 0.168,-0.672 0.336,-1.368 h 2.136 q 0.144,0.696 0.288,1.368 0.168,0.648 0.336,1.368 0.192,0.696 0.384,1.488 0.216,0.768 0.504,1.68 0.144,-1.104 0.24,-2.112 0.096,-1.008 0.144,-1.992 0.072,-1.008 0.096,-1.992 0.048,-1.008 0.096,-2.088 h 2.52 q -0.264,3.288 -0.744,6.192 -0.456,2.904 -1.032,5.088 z"
       style="font-style:normal;font-variant:normal;font-weight:bold;font-stretch:normal;font-size:24px;font-family:'Ubuntu Mono';-inkscape-font-specification:'Ubuntu Mono Bold'"
       id="path884"
       inkscape:connector-curvature="0" />
    <path
       d="m 54.265018,310.46079 q -0.264,-0.744 -0.504,-1.368 -0.216,-0.624 -0.432,-1.2 -0.192,-0.6 -0.408,-1.224 -0.192,-0.648 -0.408,-1.416 -0.24,0.768 -0.432,1.392 -0.192,0.6 -0.408,1.2 -0.192,0.6 -0.408,1.224 -0.216,0.624 -0.528,1.392 h -2.232 q -0.288,-1.056 -0.552,-2.328 -0.24,-1.296 -0.456,-2.736 -0.216,-1.464 -0.384,-3.024 -0.168,-1.56 -0.312,-3.192 h 2.52 q 0.096,2.088 0.192,4.08 0.12,1.992 0.408,4.104 0.312,-0.912 0.528,-1.68 0.24,-0.792 0.408,-1.488 0.192,-0.72 0.336,-1.368 0.168,-0.672 0.336,-1.368 h 2.136 q 0.144,0.696 0.288,1.368 0.168,0.648 0.336,1.368 0.192,0.696 0.384,1.488 0.216,0.768 0.504,1.68 0.144,-1.104 0.24,-2.112 0.096,-1.008 0.144,-1.992 0.072,-1.008 0.096,-1.992 0.048,-1.008 0.096,-2.088 h 2.52 q -0.264,3.288 -0.744,6.192 -0.456,2.904 -1.032,5.088 z"
       style="font-style:normal;font-variant:normal;font-weight:bold;font-stretch:normal;font-size:24px;font-family:'Ubuntu Mono';-inkscape-font-specification:'Ubuntu Mono Bold'"
       id="path886"
       inkscape:connector-curvature="0" />
    <path
       d="m 66.696972,308.56479 q 0,1.056 -0.648,1.608 -0.648,0.552 -1.488,0.552 -0.432,0 -0.816,-0.144 -0.384,-0.144 -0.696,-0.408 -0.288,-0.288 -0.48,-0.672 -0.168,-0.408 -0.168,-0.936 0,-0.504 0.168,-0.888 0.192,-0.408 0.48,-0.672 0.312,-0.264 0.696,-0.408 0.384,-0.144 0.816,-0.144 0.84,0 1.488,0.552 0.648,0.552 0.648,1.56 z"
       style="font-style:normal;font-variant:normal;font-weight:bold;font-stretch:normal;font-size:24px;font-family:'Ubuntu Mono';-inkscape-font-specification:'Ubuntu Mono Bold'"
       id="path888"
       inkscape:connector-curvature="0" />
    <path
       d="m 76.560926,308.34879 q 0.48,0 0.936,0 0.456,-0.024 0.792,-0.072 v -2.592 q -0.288,-0.048 -0.696,-0.072 -0.408,-0.048 -0.744,-0.048 -0.456,0 -0.888,0.072 -0.432,0.048 -0.768,0.192 -0.312,0.144 -0.504,0.408 -0.192,0.264 -0.192,0.696 0,0.768 0.576,1.104 0.576,0.312 1.488,0.312 z m -0.264,-9.456 q 1.392,0 2.304,0.336 0.936,0.312 1.488,0.912 0.552,0.576 0.792,1.44 0.24,0.84 0.24,1.896 v 6.72 q -0.648,0.144 -1.92,0.336 -1.272,0.192 -2.856,0.192 -1.08,0 -1.968,-0.192 -0.864,-0.192 -1.488,-0.624 -0.624,-0.456 -0.96,-1.152 -0.336,-0.72 -0.336,-1.752 0,-0.984 0.384,-1.656 0.384,-0.672 1.032,-1.08 0.648,-0.408 1.488,-0.576 0.84,-0.192 1.752,-0.192 1.152,0 2.04,0.192 v -0.36 q 0,-0.84 -0.528,-1.392 -0.528,-0.576 -1.824,-0.576 -0.84,0 -1.632,0.12 -0.768,0.12 -1.248,0.288 l -0.408,-2.376 q 0.552,-0.192 1.56,-0.336 1.008,-0.168 2.088,-0.168 z"
       style="font-style:normal;font-variant:normal;font-weight:bold;font-stretch:normal;font-size:24px;font-family:'Ubuntu Mono';-inkscape-font-specification:'Ubuntu Mono Bold'"
       id="path890"
       inkscape:connector-curvature="0" />
    <path
       d="m 93.74488,309.98079 q -0.072,0.048 -0.336,0.168 -0.24,0.12 -0.648,0.264 -0.408,0.12 -1.008,0.216 -0.576,0.096 -1.32,0.096 -2.04,0 -2.976,-1.2 -0.936,-1.224 -0.936,-3.552 v -9.576 h -3.12 v -2.448 h 6.072 v 12.24 q 0,1.152 0.456,1.56 0.456,0.408 1.152,0.408 0.888,0 1.488,-0.24 0.6,-0.24 0.792,-0.312 z"
       style="font-style:normal;font-variant:normal;font-weight:bold;font-stretch:normal;font-size:24px;font-family:'Ubuntu Mono';-inkscape-font-specification:'Ubuntu Mono Bold'"
       id="path892"
       inkscape:connector-curvature="0" />
    <path
       d="m 97.968835,301.62879 h -2.568 v -2.448 h 2.568 v -2.832 l 2.951995,-0.48 v 3.312 h 4.728 v 2.448 h -4.728 v 4.56 q 0,0.624 0.12,1.008 0.12,0.384 0.336,0.6 0.216,0.216 0.528,0.288 0.312,0.072 0.696,0.072 0.408,0 0.744,-0.024 0.36,-0.024 0.672,-0.072 0.336,-0.072 0.672,-0.192 0.36,-0.12 0.768,-0.312 l 0.408,2.544 q -0.816,0.336 -1.776,0.48 -0.936,0.144 -1.824,0.144 -1.032,0 -1.824,-0.168 -0.791995,-0.168 -1.343995,-0.648 -0.552,-0.48 -0.84,-1.344 -0.288,-0.888 -0.288,-2.304 z"
       style="font-style:normal;font-variant:normal;font-weight:bold;font-stretch:normal;font-size:24px;font-family:'Ubuntu Mono';-inkscape-font-specification:'Ubuntu Mono Bold'"
       id="path894"
       inkscape:connector-curvature="0" />
    <path
       d="m 112.00879,308.22879 q 1.08,0 1.656,-0.144 0.576,-0.168 0.576,-0.648 0,-0.312 -0.192,-0.528 -0.168,-0.216 -0.504,-0.36 -0.312,-0.168 -0.744,-0.312 -0.408,-0.144 -0.864,-0.288 -0.648,-0.192 -1.32,-0.432 -0.672,-0.264 -1.224,-0.648 -0.552,-0.384 -0.912,-0.96 -0.36,-0.6 -0.36,-1.488 0,-0.72 0.264,-1.344 0.288,-0.648 0.864,-1.128 0.6,-0.504 1.512,-0.768 0.912,-0.288 2.184,-0.288 1.104,0 2.04,0.168 0.96,0.168 1.656,0.48 l -0.456,2.496 q -0.408,-0.12 -1.272,-0.384 -0.864,-0.288 -1.944,-0.288 -1.128,0 -1.536,0.288 -0.384,0.264 -0.384,0.576 0,0.264 0.168,0.48 0.192,0.192 0.48,0.36 0.312,0.168 0.696,0.336 0.408,0.144 0.864,0.288 0.648,0.216 1.344,0.48 0.696,0.264 1.248,0.672 0.576,0.384 0.936,1.008 0.36,0.6 0.36,1.488 0,0.696 -0.264,1.32 -0.264,0.624 -0.888,1.08 -0.6,0.456 -1.584,0.72 -0.984,0.264 -2.424,0.264 -1.464,0 -2.496,-0.336 -1.032,-0.336 -1.656,-0.6 l 0.456,-2.472 q 0.84,0.336 1.776,0.624 0.96,0.288 1.944,0.288 z"
       style="font-style:normal;font-variant:normal;font-weight:bold;font-stretch:normal;font-size:24px;font-family:'Ubuntu Mono';-inkscape-font-specification:'Ubuntu Mono Bold'"
       id="path896"
       inkscape:connector-curvature="0" />
    <path
       d="m 126.79274,304.91679 q 0,-1.512 -0.6,-2.472 -0.6,-0.984 -1.824,-0.984 -0.336,0 -0.72,0.048 -0.384,0.024 -0.648,0.048 v 6.192 q 0.288,0.192 0.768,0.312 0.48,0.12 0.96,0.12 1.056,0 1.56,-0.84 0.504,-0.864 0.504,-2.424 z m 3,-0.096 q 0,1.296 -0.288,2.4 -0.288,1.08 -0.84,1.872 -0.552,0.768 -1.392,1.2 -0.84,0.432 -1.944,0.432 -1.128,0 -2.328,-0.552 v 4.248 h -2.952 v -14.88 q 0.816,-0.264 1.992,-0.432 1.2,-0.168 2.352,-0.168 2.616,0 4.008,1.584 1.392,1.584 1.392,4.296 z"
       style="font-style:normal;font-variant:normal;font-weight:bold;font-stretch:normal;font-size:24px;font-family:'Ubuntu Mono';-inkscape-font-specification:'Ubuntu Mono Bold'"
       id="path898"
       inkscape:connector-curvature="0" />
    <path
       d="m 136.5607,308.34879 q 0.48,0 0.936,0 0.456,-0.024 0.792,-0.072 v -2.592 q -0.288,-0.048 -0.696,-0.072 -0.408,-0.048 -0.744,-0.048 -0.456,0 -0.888,0.072 -0.432,0.048 -0.768,0.192 -0.312,0.144 -0.504,0.408 -0.192,0.264 -0.192,0.696 0,0.768 0.576,1.104 0.576,0.312 1.488,0.312 z m -0.264,-9.456 q 1.392,0 2.304,0.336 0.936,0.312 1.488,0.912 0.552,0.576 0.792,1.44 0.24,0.84 0.24,1.896 v 6.72 q -0.648,0.144 -1.92,0.336 -1.272,0.192 -2.856,0.192 -1.08,0 -1.968,-0.192 -0.864,-0.192 -1.488,-0.624 -0.624,-0.456 -0.96,-1.152 -0.336,-0.72 -0.336,-1.752 0,-0.984 0.384,-1.656 0.384,-0.672 1.032,-1.08 0.648,-0.408 1.488,-0.576 0.84,-0.192 1.752,-0.192 1.152,0 2.04,0.192 v -0.36 q 0,-0.84 -0.528,-1.392 -0.528,-0.576 -1.824,-0.576 -0.84,0 -1.632,0.12 -0.768,0.12 -1.248,0.288 l -0.408,-2.376 q 0.552,-0.192 1.56,-0.336 1.008,-0.168 2.088,-0.168 z"
       style="font-style:normal;font-variant:normal;font-weight:bold;font-stretch:normal;font-size:24px;font-family:'Ubuntu Mono';-inkscape-font-specification:'Ubuntu Mono Bold'"
       id="path900"
       inkscape:connector-curvature="0" />
    <path
       d="m 143.59265,304.82079 q 0,-1.224 0.384,-2.304 0.384,-1.08 1.176,-1.872 0.792,-0.816 1.992,-1.272 1.224,-0.48 2.904,-0.48 1.008,0 1.824,0.144 0.816,0.144 1.656,0.48 l -0.648,2.376 q -0.48,-0.168 -1.08,-0.288 -0.576,-0.144 -1.488,-0.144 -1.056,0 -1.776,0.264 -0.696,0.24 -1.128,0.696 -0.432,0.432 -0.624,1.056 -0.192,0.624 -0.192,1.344 0,1.56 0.864,2.448 0.888,0.888 3,0.888 0.696,0 1.44,-0.096 0.768,-0.096 1.392,-0.312 l 0.432,2.424 q -0.624,0.24 -1.512,0.384 -0.888,0.168 -2.088,0.168 -1.728,0 -2.976,-0.456 -1.224,-0.456 -2.016,-1.248 -0.792,-0.792 -1.176,-1.872 -0.36,-1.08 -0.36,-2.328 z"
       style="font-style:normal;font-variant:normal;font-weight:bold;font-stretch:normal;font-size:24px;font-family:'Ubuntu Mono';-inkscape-font-specification:'Ubuntu Mono Bold'"
       id="path902"
       inkscape:connector-curvature="0" />
    <path
       d="m 155.28061,304.91679 q 0,-1.488 0.456,-2.616 0.456,-1.128 1.2,-1.872 0.744,-0.768 1.704,-1.152 0.96,-0.384 1.968,-0.384 2.496,0 3.792,1.488 1.296,1.464 1.296,4.296 0,0.288 -0.024,0.6 0,0.312 -0.024,0.504 h -7.32 q 0,1.104 0.912,1.752 0.912,0.624 2.352,0.624 0.888,0 1.68,-0.192 0.816,-0.192 1.368,-0.384 l 0.408,2.52 q -0.768,0.264 -1.632,0.432 -0.864,0.192 -1.944,0.192 -1.44,0 -2.592,-0.36 -1.128,-0.384 -1.944,-1.104 -0.792,-0.744 -1.224,-1.824 -0.432,-1.08 -0.432,-2.52 z m 7.56,-1.176 q 0,-0.456 -0.12,-0.864 -0.12,-0.432 -0.384,-0.768 -0.264,-0.336 -0.672,-0.528 -0.408,-0.216 -1.008,-0.216 -0.576,0 -1.008,0.192 -0.408,0.192 -0.696,0.528 -0.264,0.336 -0.432,0.768 -0.144,0.432 -0.192,0.888 z"
       style="font-style:normal;font-variant:normal;font-weight:bold;font-stretch:normal;font-size:24px;font-family:'Ubuntu Mono';-inkscape-font-specification:'Ubuntu Mono Bold'"
       id="path904"
       inkscape:connector-curvature="0" />
    <path
       d="m 172.00856,308.22879 q 1.08,0 1.656,-0.144 0.576,-0.168 0.576,-0.648 0,-0.312 -0.192,-0.528 -0.168,-0.216 -0.504,-0.36 -0.312,-0.168 -0.744,-0.312 -0.408,-0.144 -0.864,-0.288 -0.648,-0.192 -1.32,-0.432 -0.672,-0.264 -1.224,-0.648 -0.552,-0.384 -0.912,-0.96 -0.36,-0.6 -0.36,-1.488 0,-0.72 0.264,-1.344 0.288,-0.648 0.864,-1.128 0.6,-0.504 1.512,-0.768 0.912,-0.288 2.184,-0.288 1.104,0 2.04,0.168 0.96,0.168 1.656,0.48 l -0.456,2.496 q -0.408,-0.12 -1.272,-0.384 -0.864,-0.288 -1.944,-0.288 -1.128,0 -1.536,0.288 -0.384,0.264 -0.384,0.576 0,0.264 0.168,0.48 0.192,0.192 0.48,0.36 0.312,0.168 0.696,0.336 0.408,0.144 0.864,0.288 0.648,0.216 1.344,0.48 0.696,0.264 1.248,0.672 0.576,0.384 0.936,1.008 0.36,0.6 0.36,1.488 0,0.696 -0.264,1.32 -0.264,0.624 -0.888,1.08 -0.6,0.456 -1.584,0.72 -0.984,0.264 -2.424,0.264 -1.464,0 -2.496,-0.336 -1.032,-0.336 -1.656,-0.6 l 0.456,-2.472 q 0.84,0.336 1.776,0.624 0.96,0.288 1.944,0.288 z"
       style="font-style:normal;font-variant:normal;font-weight:bold;font-stretch:normal;font-size:24px;font-family:'Ubuntu Mono';-inkscape-font-specification:'Ubuntu Mono Bold'"
       id="path906"
       inkscape:connector-curvature="0" />
    <path
       d="m 179.28051,304.91679 q 0,-1.488 0.456,-2.616 0.456,-1.128 1.2,-1.872 0.744,-0.768 1.704,-1.152 0.96,-0.384 1.968,-0.384 2.496,0 3.792,1.488 1.296,1.464 1.296,4.296 0,0.288 -0.024,0.6 0,0.312 -0.024,0.504 h -7.32 q 0,1.104 0.912,1.752 0.912,0.624 2.352,0.624 0.888,0 1.68,-0.192 0.816,-0.192 1.368,-0.384 l 0.408,2.52 q -0.768,0.264 -1.632,0.432 -0.864,0.192 -1.944,0.192 -1.44,0 -2.592,-0.36 -1.128,-0.384 -1.944,-1.104 -0.792,-0.744 -1.224,-1.824 -0.432,-1.08 -0.432,-2.52 z m 7.56,-1.176 q 0,-0.456 -0.12,-0.864 -0.12,-0.432 -0.384,-0.768 -0.264,-0.336 -0.672,-0.528 -0.408,-0.216 -1.008,-0.216 -0.576,0 -1.008,0.192 -0.408,0.192 -0.696,0.528 -0.264,0.336 -0.432,0.768 -0.144,0.432 -0.192,0.888 z"
       style="font-style:normal;font-variant:normal;font-weight:bold;font-stretch:normal;font-size:24px;font-family:'Ubuntu Mono';-inkscape-font-specification:'Ubuntu Mono Bold'"
       id="path908"
       inkscape:connector-curvature="0" />
    <path
       d="m 196.56047,308.34879 q 0.48,0 0.936,0 0.456,-0.024 0.792,-0.072 v -2.592 q -0.288,-0.048 -0.696,-0.072 -0.408,-0.048 -0.744,-0.048 -0.456,0 -0.888,0.072 -0.432,0.048 -0.768,0.192 -0.312,0.144 -0.504,0.408 -0.192,0.264 -0.192,0.696 0,0.768 0.576,1.104 0.576,0.312 1.488,0.312 z m -0.264,-9.456 q 1.392,0 2.304,0.336 0.936,0.312 1.488,0.912 0.552,0.576 0.792,1.44 0.24,0.84 0.24,1.896 v 6.72 q -0.648,0.144 -1.92,0.336 -1.272,0.192 -2.856,0.192 -1.08,0 -1.968,-0.192 -0.864,-0.192 -1.488,-0.624 -0.624,-0.456 -0.96,-1.152 -0.336,-0.72 -0.336,-1.752 0,-0.984 0.384,-1.656 0.384,-0.672 1.032,-1.08 0.648,-0.408 1.488,-0.576 0.84,-0.192 1.752,-0.192 1.152,0 2.04,0.192 v -0.36 q 0,-0.84 -0.528,-1.392 -0.528,-0.576 -1.824,-0.576 -0.84,0 -1.632,0.12 -0.768,0.12 -1.248,0.288 l -0.408,-2.376 q 0.552,-0.192 1.56,-0.336 1.008,-0.168 2.088,-0.168 z"
       style="font-style:normal;font-variant:normal;font-weight:bold;font-stretch:normal;font-size:24px;font-family:'Ubuntu Mono';-inkscape-font-specification:'Ubuntu Mono Bold'"
       id="path910"
       inkscape:connector-curvature="0" />
    <path
       d="m 205.96842,301.62879 h -2.568 v -2.448 h 2.568 v -2.832 l 2.952,-0.48 v 3.312 h 4.728 v 2.448 h -4.728 v 4.56 q 0,0.624 0.12,1.008 0.12,0.384 0.336,0.6 0.216,0.216 0.528,0.288 0.312,0.072 0.696,0.072 0.408,0 0.744,-0.024 0.36,-0.024 0.672,-0.072 0.336,-0.072 0.672,-0.192 0.36,-0.12 0.768,-0.312 l 0.408,2.544 q -0.816,0.336 -1.776,0.48 -0.936,0.144 -1.824,0.144 -1.032,0 -1.824,-0.168 -0.792,-0.168 -1.344,-0.648 -0.552,-0.48 -0.84,-1.344 -0.288,-0.888 -0.288,-2.304 z"
       style="font-style:normal;font-variant:normal;font-weight:bold;font-stretch:normal;font-size:24px;font-family:'Ubuntu Mono';-inkscape-font-specification:'Ubuntu Mono Bold'"
       id="path912"
       inkscape:connector-curvature="0" />
    <path
       d="m 217.96838,301.62879 h -2.568 v -2.448 h 2.568 v -2.832 l 2.952,-0.48 v 3.312 h 4.728 v 2.448 h -4.728 v 4.56 q 0,0.624 0.12,1.008 0.12,0.384 0.336,0.6 0.216,0.216 0.528,0.288 0.312,0.072 0.696,0.072 0.408,0 0.744,-0.024 0.36,-0.024 0.672,-0.072 0.336,-0.072 0.672,-0.192 0.36,-0.12 0.768,-0.312 l 0.408,2.544 q -0.816,0.336 -1.776,0.48 -0.936,0.144 -1.824,0.144 -1.032,0 -1.824,-0.168 -0.792,-0.168 -1.344,-0.648 -0.552,-0.48 -0.84,-1.344 -0.288,-0.888 -0.288,-2.304 z"
       style="font-style:normal;font-variant:normal;font-weight:bold;font-stretch:normal;font-size:24px;font-family:'Ubuntu Mono';-inkscape-font-specification:'Ubuntu Mono Bold'"
       id="path914"
       inkscape:connector-curvature="0" />
    <path
       d="m 237.74433,309.98079 q -0.072,0.048 -0.336,0.168 -0.24,0.12 -0.648,0.264 -0.408,0.12 -1.008,0.216 -0.576,0.096 -1.32,0.096 -2.04,0 -2.976,-1.2 -0.936,-1.224 -0.936,-3.552 v -9.576 h -3.12 v -2.448 h 6.072 v 12.24 q 0,1.152 0.456,1.56 0.456,0.408 1.152,0.408 0.888,0 1.488,-0.24 0.6,-0.24 0.792,-0.312 z"
       style="font-style:normal;font-variant:normal;font-weight:bold;font-stretch:normal;font-size:24px;font-family:'Ubuntu Mono';-inkscape-font-specification:'Ubuntu Mono Bold'"
       id="path916"
       inkscape:connector-curvature="0" />
    <path
       d="m 239.28029,304.91679 q 0,-1.488 0.456,-2.616 0.456,-1.128 1.2,-1.872 0.744,-0.768 1.704,-1.152 0.96,-0.384 1.968,-0.384 2.496,0 3.792,1.488 1.296,1.464 1.296,4.296 0,0.288 -0.024,0.6 0,0.312 -0.024,0.504 h -7.32 q 0,1.104 0.912,1.752 0.912,0.624 2.352,0.624 0.888,0 1.68,-0.192 0.816,-0.192 1.368,-0.384 l 0.408,2.52 q -0.768,0.264 -1.632,0.432 -0.864,0.192 -1.944,0.192 -1.44,0 -2.592,-0.36 -1.128,-0.384 -1.944,-1.104 -0.792,-0.744 -1.224,-1.824 -0.432,-1.08 -0.432,-2.52 z m 7.56,-1.176 q 0,-0.456 -0.12,-0.864 -0.12,-0.432 -0.384,-0.768 -0.264,-0.336 -0.672,-0.528 -0.408,-0.216 -1.008,-0.216 -0.576,0 -1.008,0.192 -0.408,0.192 -0.696,0.528 -0.264,0.336 -0.432,0.768 -0.144,0.432 -0.192,0.888 z"
       style="font-style:normal;font-variant:normal;font-weight:bold;font-stretch:normal;font-size:24px;font-family:'Ubuntu Mono';-inkscape-font-specification:'Ubuntu Mono Bold'"
       id="path918"
       inkscape:connector-curvature="0" />
    <path
       d="m 258.69624,308.56479 q 0,1.056 -0.648,1.608 -0.648,0.552 -1.488,0.552 -0.432,0 -0.816,-0.144 -0.384,-0.144 -0.696,-0.408 -0.288,-0.288 -0.48,-0.672 -0.168,-0.408 -0.168,-0.936 0,-0.504 0.168,-0.888 0.192,-0.408 0.48,-0.672 0.312,-0.264 0.696,-0.408 0.384,-0.144 0.816,-0.144 0.84,0 1.488,0.552 0.648,0.552 0.648,1.56 z"
       style="font-style:normal;font-variant:normal;font-weight:bold;font-stretch:normal;font-size:24px;font-family:'Ubuntu Mono';-inkscape-font-specification:'Ubuntu Mono Bold'"
       id="path920"
       inkscape:connector-curvature="0" />
    <path
       d="m 263.59219,304.82079 q 0,-1.224 0.384,-2.304 0.384,-1.08 1.176,-1.872 0.792,-0.816 1.992,-1.272 1.224,-0.48 2.904,-0.48 1.008,0 1.824,0.144 0.816,0.144 1.656,0.48 l -0.648,2.376 q -0.48,-0.168 -1.08,-0.288 -0.576,-0.144 -1.488,-0.144 -1.056,0 -1.776,0.264 -0.696,0.24 -1.128,0.696 -0.432,0.432 -0.624,1.056 -0.192,0.624 -0.192,1.344 0,1.56 0.864,2.448 0.888,0.888 3,0.888 0.696,0 1.44,-0.096 0.768,-0.096 1.392,-0.312 l 0.432,2.424 q -0.624,0.24 -1.512,0.384 -0.888,0.168 -2.088,0.168 -1.728,0 -2.976,-0.456 -1.224,-0.456 -2.016,-1.248 -0.792,-0.792 -1.176,-1.872 -0.36,-1.08 -0.36,-2.328 z"
       style="font-style:normal;font-variant:normal;font-weight:bold;font-stretch:normal;font-size:24px;font-family:'Ubuntu Mono';-inkscape-font-specification:'Ubuntu Mono Bold'"
       id="path922"
       inkscape:connector-curvature="0" />
    <path
       d="m 285.86415,304.79679 q 0,1.344 -0.384,2.448 -0.384,1.08 -1.08,1.872 -0.696,0.792 -1.68,1.224 -0.96,0.432 -2.16,0.432 -1.2,0 -2.184,-0.432 -0.96,-0.432 -1.68,-1.224 -0.696,-0.792 -1.08,-1.872 -0.384,-1.104 -0.384,-2.448 0,-1.32 0.384,-2.4 0.408,-1.104 1.104,-1.872 0.72,-0.792 1.704,-1.2 0.984,-0.432 2.136,-0.432 1.176,0 2.136,0.432 0.984,0.408 1.68,1.2 0.72,0.768 1.104,1.872 0.384,1.08 0.384,2.4 z m -7.632,0.024 q 0,1.512 0.528,2.448 0.552,0.936 1.752,0.936 1.152,0 1.728,-0.936 0.6,-0.936 0.6,-2.448 0,-1.512 -0.552,-2.424 -0.528,-0.936 -1.728,-0.936 -1.152,0 -1.752,0.936 -0.576,0.912 -0.576,2.424 z"
       style="font-style:normal;font-variant:normal;font-weight:bold;font-stretch:normal;font-size:24px;font-family:'Ubuntu Mono';-inkscape-font-specification:'Ubuntu Mono Bold'"
       id="path924"
       inkscape:connector-curvature="0" />
    <path
       d="m 294.7681,299.06079 q 0.936,0 1.536,0.288 0.6,0.288 0.936,0.864 0.36,0.576 0.48,1.464 0.12,0.864 0.12,2.04 v 6.744 h -2.4 v -6.888 q 0,-0.672 -0.096,-1.08 -0.072,-0.408 -0.216,-0.624 -0.12,-0.216 -0.312,-0.288 -0.168,-0.072 -0.36,-0.072 -0.216,0 -0.456,0.048 -0.24,0.024 -0.432,0.12 0.072,0.456 0.12,1.008 0.048,0.552 0.048,1.224 v 2.256 h -2.4 v -2.592 q 0,-1.152 -0.24,-1.608 -0.216,-0.456 -0.72,-0.456 -0.144,0 -0.36,0.024 -0.192,0.024 -0.384,0.072 v 8.856 h -2.4 v -10.848 q 0.936,-0.264 1.848,-0.408 0.912,-0.144 1.608,-0.144 0.624,0 1.104,0.168 0.504,0.144 0.864,0.504 0.408,-0.264 0.96,-0.456 0.552,-0.216 1.152,-0.216 z"
       style="font-style:normal;font-variant:normal;font-weight:bold;font-stretch:normal;font-size:24px;font-family:'Ubuntu Mono';-inkscape-font-specification:'Ubuntu Mono Bold'"
       id="path926"
       inkscape:connector-curvature="0" />
  </g>
</svg>
