<?xml version="1.0" encoding="UTF-8" standalone="no"?>
<svg
   xmlns:dc="http://purl.org/dc/elements/1.1/"
   xmlns:cc="http://creativecommons.org/ns#"
   xmlns:rdf="http://www.w3.org/1999/02/22-rdf-syntax-ns#"
   xmlns:svg="http://www.w3.org/2000/svg"
   xmlns="http://www.w3.org/2000/svg"
   version="1.1"
   id="svg4238"
   viewBox="0 0 1794.8973 1569.2016"
   height="442.86356mm"
   width="506.55991mm">
  <defs
     id="defs4240" />
  <metadata
     id="metadata4243">
    <rdf:RDF>
      <cc:Work
         rdf:about="">
        <dc:format>image/svg+xml</dc:format>
        <dc:type
           rdf:resource="http://purl.org/dc/dcmitype/StillImage" />
        <dc:title></dc:title>
      </cc:Work>
    </rdf:RDF>
  </metadata>
  <g
     transform="translate(6159.7365,3270.5028)"
     id="layer1">
    <g
       id="g22"
       transform="matrix(1.1676018,0,0,-1.1676018,98.657051,199.20372)" />
    <g
       id="g26"
       transform="matrix(1.1676018,0,0,-1.1676018,192.57361,870.77265)" />
    <g
       id="g3850"
       transform="matrix(4.9190846,0,0,4.9190846,-7039.5811,-4884.0114)">
      <path
         d="m 459,539.36218 -124,-210 52,0 155,263 -258.625,0.55357 L 313,539.36218 Z m -175.59592,53.63412 258.65896,-0.26269 -25.54,51.69472 -310.34371,0.1116 128.61339,-224.00991 22.98097,37.48151 c -24.49874,45.15493 -49.49153,90.0384 -74.36961,134.98477 z M 334.80587,420.38371 206.01143,644.89011 180,592.36218 334.80587,329.97506 458.8021,539.32917 l -51.51778,0 C 383.17087,499.65265 358.97784,460.02459 334.80587,420.38371 Z"
         style="fill:none;stroke:#000000;stroke-width:2;stroke-linecap:butt;stroke-linejoin:miter;stroke-opacity:1"
         id="path3002" />
      <g
         id="flowRoot6894"
         style="font-style:normal;font-variant:normal;font-weight:bold;font-stretch:normal;font-size:250px;line-height:125%;font-family:'Ubuntu Mono';-inkscape-font-specification:'Ubuntu Mono Bold';letter-spacing:0px;word-spacing:0px;fill:#000000;fill-opacity:1;stroke:none;stroke-width:1px;stroke-linecap:butt;stroke-linejoin:miter;stroke-opacity:1"
         transform="matrix(0.10317741,-0.17516048,0.17516048,0.10317741,218.23959,171.96408)">
        <path
           id="path4186"
           style=""
           d="m -998.82227,1077.1484 -7.25003,-35.75 -41.25,0 -7,35.75 -32,0 q 11,-45.75 22.25,-83.24996 11.25,-37.75 21.75,-71.5 l 33.5,0 q 11.00003,34 21.75003,72.25 11,37.99996 21.25,82.49996 l -33,0 z m -27.50003,-124.74996 q -2.5,8.75 -4.75,16.75 -2,7.75 -4,15.5 -1.75,7.5 -3.5,15.25 -1.5,7.74996 -3,15.99996 l 30.25,0 q -1.5,-8.25 -3,-15.99996 -1.5,-7.75 -3.5,-15.25 -1.75,-7.75 -4,-15.5 -2,-8 -4.5,-16.75 z" />
        <path
           id="path4188"
           style=""
           d="m -892.57227,925.89844 q 0,9 -5.75,14.25 -5.75,5.25 -13.75,5.25 -8,0 -13.75,-5.25 -5.5,-5.25 -5.5,-14.25 0,-9.25 5.5,-14.5 5.75,-5.25 13.75,-5.25 8,0 13.75,5.25 5.75,5.25 5.75,14.5 z m 45.75,146.24996 q -9.5,4.5 -18,6 -8.25,1.75 -15.25,1.75 -12,0 -20.25,-3.5 -8,-3.5 -13,-10 -4.75,-6.75 -6.75,-16.25 -2,-9.5 -2,-21.75 l 0,-43.24996 -32.5,0 0,-25.5 63.25,0 0,72.74996 q 0,10.5 3.75,15.75 4,5 13,5 4.25,0 10.25,-1 6,-1.25 13.5,-4.75 l 4,24.75 z" />
        <path
           id="path4190"
           style=""
           d="m -729.32227,990.89844 q -3,-0.75 -7.25,-1.5 -4,-0.75 -8.25,-1.25 -4.25,-0.75 -8.25,-1 -4,-0.25 -6.75,-0.25 -6.5,0 -12.75,0.75 -6.25,0.5 -12.75,2.25 l 0,87.24996 -31,0 0,-109.74996 q 12.25,-4.5 25,-7.25 13,-2.75 30.25,-2.75 2.5,0 7,0.25 4.75,0.25 10,1 5.25,0.5 10.5,1.5 5.5,0.75 9.75,2.25 l -5.5,28.5 z" />
      </g>
      <g
         id="flowRoot6902"
         style="font-style:normal;font-variant:normal;font-weight:bold;font-stretch:normal;font-size:250px;line-height:125%;font-family:'Ubuntu Mono';-inkscape-font-specification:'Ubuntu Mono Bold';letter-spacing:0px;word-spacing:0px;fill:#000000;fill-opacity:1;stroke:none;stroke-width:1px;stroke-linecap:butt;stroke-linejoin:miter;stroke-opacity:1"
         transform="matrix(0.09281008,0.15756025,-0.15756025,0.09281008,581.97005,593.68285)">
        <path
           id="path4175"
           style=""
           d="m -1102.1426,374.29102 -97.25,0 0,-154.75 31,0 0,129.25 66.25,0 0,25.5 z" />
        <path
           id="path4177"
           style=""
           d="m -1021.1426,223.04102 q 0,9 -5.75,14.25 -5.75,5.25 -13.75,5.25 -8,0 -13.75,-5.25 -5.5,-5.25 -5.5,-14.25 0,-9.25 5.5,-14.5 5.75,-5.25 13.75,-5.25 8,0 13.75,5.25 5.75,5.25 5.75,14.5 z m 45.75002,146.25 q -9.5,4.5 -18,6 -8.25002,1.75 -15.25002,1.75 -12,0 -20.25,-3.5 -8,-3.5 -13,-10 -4.75,-6.75 -6.75,-16.25 -2,-9.5 -2,-21.75 l 0,-43.25 -32.5,0 0,-25.5 63.25,0 0,72.75 q 0,10.5 3.75,15.75 4,5 13,5 4.25002,0 10.25002,-1 6,-1.25 13.5,-4.75 l 4,24.75 z" />
        <path
           id="path4179"
           style=""
           d="m -927.64258,311.79102 q 0,14.5 5.25,22.25 5.25,7.5 16.5,7.5 5,0 9.25,-1.25 4.5,-1.25 8,-3.25 l 0,-56.5 q -3.5,-0.75 -6.25,-1 -2.75,-0.25 -5.75,-0.25 -27,0 -27,32.5 z m 70,48.25 q 0,28.75 -14,42.5 -13.75,13.75 -44.5,13.75 -11,0 -21.25,-2.25 -10,-2.25 -19.25,-5.25 l 5.75,-26 q 7.25,2.75 15.25,5 8,2.5 20,2.5 8,0 13.25,-2 5.25,-1.75 8.25,-5 3,-3.25 4.25,-7.75 1.25,-4.25 1.25,-9.25 l 0,-4.75 q -6.5,2.5 -12,3.75 -5.25,1.25 -11.5,1.25 -23,0 -35,-14.5 -11.75,-14.5 -11.75,-40.25 0,-29 16,-43.25 16,-14.25 43.5,-14.25 19.25,0 41.75,6.25 l 0,99.5 z" />
        <path
           id="path4181"
           style=""
           d="m -826.39258,374.29102 0,-168.25 30.75,-5.25 0,57 q 3.75,-1.25 9,-2.25 5.25,-1.25 9.25,-1.25 13,0 21.75,4 8.75,3.75 14,11 5.25,7 7.5,17 2.25,9.75 2.25,21.75 l 0,66.25 -30.75,0 0,-62.25 q 0,-16.5 -3.75,-23.75 -3.75,-7.25 -14.25,-7.25 -4.25,0 -8.5,1 -4,1 -6.5,1.75 l 0,90.5 -30.75,0 z" />
        <path
           id="path4183"
           style=""
           d="m -681.39258,282.29102 -26.75,0 0,-25.5 26.75,0 0,-29.5 30.75,-5 0,34.5 49.25,0 0,25.5 -49.25,0 0,47.5 q 0,6.5 1.25,10.5 1.25,4 3.5,6.25 2.25,2.25 5.5,3 3.25,0.75 7.25,0.75 4.25,0 7.75,-0.25 3.75,-0.25 7,-0.75 3.5,-0.75 7,-2 3.75,-1.25 8,-3.25 l 4.25,26.5 q -8.5,3.5 -18.5,5 -9.75,1.5 -19,1.5 -10.75,0 -19,-1.75 -8.25,-1.75 -14,-6.75 -5.75,-5 -8.75,-14 -3,-9.25 -3,-24 l 0,-48.25 z" />
      </g>
      <g
         id="flowRoot6910"
         style="font-style:normal;font-variant:normal;font-weight:bold;font-stretch:normal;font-size:50.8224678px;line-height:125%;font-family:'Ubuntu Mono';-inkscape-font-specification:'Ubuntu Mono Bold';letter-spacing:0px;word-spacing:0px;fill:#000000;fill-opacity:1;stroke:none;stroke-width:1px;stroke-linecap:butt;stroke-linejoin:miter;stroke-opacity:1"
         transform="translate(-16.428302,0)">
        <path
           id="path4166"
           style=""
           d="m 403.39067,552.69694 0,5.18389 -8.28406,0 0,26.27521 -6.30199,0 0,-26.27521 -8.28406,0 0,-5.18389 22.87011,0 z" />
        <path
           id="path4168"
           style=""
           d="m 419.09481,553.40845 q 0,1.82961 -1.16891,2.89688 -1.16892,1.06727 -2.79524,1.06727 -1.62632,0 -2.79523,-1.06727 -1.1181,-1.06727 -1.1181,-2.89688 0,-1.88043 1.1181,-2.9477 1.16891,-1.06727 2.79523,-1.06727 1.62632,0 2.79524,1.06727 1.16891,1.06727 1.16891,2.9477 z m 9.30052,29.73115 q -1.93126,0.9148 -3.65922,1.21973 -1.67714,0.35576 -3.10017,0.35576 -2.43948,0 -4.11662,-0.71151 -1.62632,-0.71152 -2.64277,-2.0329 -0.96563,-1.37221 -1.37221,-3.30346 -0.40658,-1.93126 -0.40658,-4.42156 l 0,-8.79228 -6.60692,0 0,-5.1839 12.85809,0 0,14.78934 q 0,2.13455 0.76233,3.20182 0.81316,1.01645 2.64277,1.01645 0.86398,0 2.08372,-0.20329 1.21974,-0.25411 2.74442,-0.96563 l 0.81316,5.03143 z" />
        <path
           id="path4170"
           style=""
           d="m 447.50457,560.01537 q 1.98208,0 3.25264,0.60987 1.27056,0.60987 1.98208,1.82961 0.76234,1.21974 1.01645,3.10017 0.25411,1.82961 0.25411,4.31991 l 0,14.28111 -5.08225,0 0,-14.58604 q 0,-1.42303 -0.20329,-2.28701 -0.15246,-0.86399 -0.4574,-1.32139 -0.25411,-0.4574 -0.66069,-0.60987 -0.35576,-0.15247 -0.76234,-0.15247 -0.4574,0 -0.96562,0.10165 -0.50823,0.0508 -0.91481,0.25411 0.15247,0.96563 0.25411,2.13455 0.10165,1.16891 0.10165,2.59194 l 0,4.77731 -5.08225,0 0,-5.48882 q 0,-2.43948 -0.50822,-3.40511 -0.45741,-0.96563 -1.52468,-0.96563 -0.30493,0 -0.76233,0.0508 -0.40658,0.0508 -0.81316,0.15246 l 0,18.75349 -5.08225,0 0,-22.97175 q 1.98208,-0.55905 3.91333,-0.86398 1.93125,-0.30494 3.4051,-0.30494 1.32139,0 2.33784,0.35576 1.06727,0.30493 1.82961,1.06727 0.86398,-0.55905 2.0329,-0.96563 1.16891,-0.4574 2.43947,-0.4574 z" />
        <path
           id="path4172"
           style=""
           d="m 457.0592,572.41605 q 0,-3.15099 0.96563,-5.53964 0.96562,-2.38866 2.54112,-3.96416 1.5755,-1.62632 3.6084,-2.43948 2.03289,-0.81315 4.16744,-0.81315 5.28553,0 8.02995,3.15099 2.74441,3.10017 2.74441,9.09722 0,0.60987 -0.0508,1.27056 0,0.66069 -0.0508,1.06727 l -15.50086,0 q 0,2.33784 1.93126,3.71004 1.93125,1.32139 4.9806,1.32139 1.88043,0 3.55757,-0.40658 1.72797,-0.40658 2.89688,-0.81316 l 0.86398,5.33636 q -1.62631,0.55904 -3.45592,0.9148 -1.82961,0.40658 -4.11662,0.40658 -3.04935,0 -5.48883,-0.76234 -2.38866,-0.81315 -4.11662,-2.33783 -1.67714,-1.5755 -2.59195,-3.86251 -0.9148,-2.28701 -0.9148,-5.33636 z m 16.00908,-2.4903 q 0,-0.96562 -0.25411,-1.82961 -0.25412,-0.9148 -0.81316,-1.62631 -0.55905,-0.71152 -1.42303,-1.1181 -0.86399,-0.4574 -2.13455,-0.4574 -1.21974,0 -2.13454,0.40658 -0.86398,0.40658 -1.47385,1.11809 -0.55905,0.71152 -0.91481,1.62632 -0.30493,0.91481 -0.40658,1.88043 l 9.55463,0 z" />
      </g>
      <g
         id="flowRoot6918"
         style="font-style:normal;font-variant:normal;font-weight:bold;font-stretch:normal;font-size:50.8224678px;line-height:125%;font-family:'Ubuntu Mono';-inkscape-font-specification:'Ubuntu Mono Bold';letter-spacing:0px;word-spacing:0px;fill:#000000;fill-opacity:1;stroke:none;stroke-width:1px;stroke-linecap:butt;stroke-linejoin:miter;stroke-opacity:1"
         transform="translate(-15.606887,1.6428302)">
        <path
           id="path4155"
           style=""
           d="m 308.5623,624.88671 q 1.57549,0 2.59194,-0.30493 1.06727,-0.35576 1.67714,-0.91481 0.60987,-0.60987 0.81316,-1.32138 0.25412,-0.76234 0.25412,-1.52468 0,-0.96562 -0.55905,-1.72796 -0.55905,-0.76234 -1.42303,-1.32139 -0.86398,-0.60986 -1.93125,-1.06727 -1.06728,-0.50822 -2.13455,-0.9148 -1.42303,-0.50823 -2.9477,-1.16892 -1.52467,-0.66069 -2.79524,-1.67714 -1.21974,-1.01645 -2.0329,-2.4903 -0.81315,-1.52467 -0.81315,-3.76086 0,-4.42156 2.84605,-6.91186 2.89688,-2.4903 7.92831,-2.4903 2.89688,0 5.03142,0.66069 2.18537,0.66069 3.65922,1.47385 l -1.82961,4.82814 q -1.27056,-0.71152 -2.84606,-1.21974 -1.52467,-0.50823 -3.55757,-0.50823 -4.9806,0 -4.9806,3.6084 0,0.9148 0.50822,1.62632 0.50823,0.66069 1.27057,1.21974 0.81315,0.50822 1.77878,0.9148 1.01645,0.40658 1.98208,0.76234 1.47385,0.55905 3.04935,1.27056 1.62631,0.66069 2.9477,1.82961 1.37221,1.11809 2.23619,2.84606 0.86398,1.67714 0.86398,4.26909 0,4.42155 -2.89688,6.86103 -2.84606,2.38865 -8.69064,2.38865 -3.91333,0 -6.25117,-0.81316 -2.33783,-0.86398 -3.50675,-1.57549 l 1.82961,-5.08225 q 1.37221,0.81316 3.25264,1.52468 1.93125,0.71151 4.67567,0.71151 z" />
        <path
           id="path4157"
           style=""
           d="m 339.66565,617.72074 q 0,-3.20181 -1.27056,-5.23471 -1.27057,-2.08372 -3.86251,-2.08372 -0.71152,0 -1.52468,0.10164 -0.81316,0.0508 -1.3722,0.10165 l 0,13.11219 q 0.60987,0.40658 1.62632,0.6607 1.01645,0.25411 2.03289,0.25411 2.23619,0 3.30347,-1.77879 1.06727,-1.82961 1.06727,-5.13307 z m 6.35281,-0.20329 q 0,2.74442 -0.60987,5.08225 -0.60987,2.28701 -1.77879,3.96415 -1.16892,1.62632 -2.9477,2.54112 -1.77879,0.91481 -4.11662,0.91481 -2.38866,0 -4.92978,-1.16892 l 0,8.99558 -6.25117,0 0,-31.50993 q 1.72797,-0.55905 4.21827,-0.91481 2.54112,-0.35575 4.9806,-0.35575 5.53965,0 8.48735,3.35428 2.94771,3.35428 2.94771,9.09722 z" />
        <path
           id="path4159"
           style=""
           d="m 360.35039,624.98836 q 1.01645,0 1.98208,0 0.96562,-0.0508 1.67714,-0.15247 l 0,-5.48883 q -0.60987,-0.10164 -1.47385,-0.15247 -0.86398,-0.10164 -1.5755,-0.10164 -0.96563,0 -1.88043,0.15247 -0.9148,0.10164 -1.62632,0.40658 -0.66069,0.30493 -1.06727,0.86398 -0.40658,0.55905 -0.40658,1.47385 0,1.62632 1.21974,2.33783 1.21974,0.6607 3.15099,0.6607 z m -0.55905,-20.02406 q 2.94771,0 4.87896,0.71152 1.98208,0.66069 3.15099,1.93125 1.16892,1.21974 1.67715,3.04935 0.50822,1.77879 0.50822,4.01497 l 0,14.2303 q -1.37221,0.30493 -4.0658,0.71151 -2.69359,0.40658 -6.04787,0.40658 -2.28701,0 -4.16744,-0.40658 -1.82961,-0.40658 -3.151,-1.32138 -1.32138,-0.96563 -2.03289,-2.43948 -0.71152,-1.52468 -0.71152,-3.71004 0,-2.08372 0.81316,-3.50675 0.81316,-1.42303 2.18537,-2.28701 1.3722,-0.86399 3.15099,-1.21974 1.77879,-0.40658 3.71004,-0.40658 2.43948,0 4.31991,0.40658 l 0,-0.76234 q 0,-1.77879 -1.1181,-2.9477 -1.11809,-1.21974 -3.8625,-1.21974 -1.77879,0 -3.45593,0.25411 -1.62632,0.25411 -2.64277,0.60987 l -0.86398,-5.03143 q 1.16892,-0.40658 3.30346,-0.71151 2.13454,-0.35576 4.42155,-0.35576 z" />
        <path
           id="path4161"
           style=""
           d="m 375.24138,617.51745 q 0,-2.59194 0.81316,-4.87895 0.81316,-2.28702 2.4903,-3.96416 1.67714,-1.72796 4.21826,-2.69359 2.59195,-1.01645 6.14952,-1.01645 2.13454,0 3.86251,0.30494 1.72796,0.30493 3.50675,1.01645 l -1.37221,5.03142 q -1.01645,-0.35576 -2.28701,-0.60987 -1.21974,-0.30493 -3.15099,-0.30493 -2.23619,0 -3.76087,0.55904 -1.47385,0.50823 -2.38865,1.47386 -0.91481,0.9148 -1.32139,2.23618 -0.40657,1.32139 -0.40657,2.84606 0,3.30346 1.8296,5.18389 1.88044,1.88044 6.35281,1.88044 1.47385,0 3.04935,-0.20329 1.62632,-0.20329 2.9477,-0.6607 l 0.91481,5.13307 q -1.32139,0.50823 -3.20182,0.81316 -1.88043,0.35576 -4.42155,0.35576 -3.65922,0 -6.30199,-0.96563 -2.59194,-0.96562 -4.26909,-2.64277 -1.67714,-1.67714 -2.4903,-3.96415 -0.76233,-2.28701 -0.76233,-4.92978 z" />
        <path
           id="path4163"
           style=""
           d="m 399.99192,617.72074 q 0,-3.15099 0.96562,-5.53965 0.96563,-2.38865 2.54113,-3.96415 1.57549,-1.62632 3.60839,-2.43948 2.0329,-0.81316 4.16744,-0.81316 5.28554,0 8.02995,3.151 2.74442,3.10017 2.74442,9.09722 0,0.60987 -0.0508,1.27056 0,0.66069 -0.0508,1.06727 l -15.50085,0 q 0,2.33783 1.93125,3.71004 1.93126,1.32139 4.98061,1.32139 1.88043,0 3.55757,-0.40658 1.72796,-0.40658 2.89688,-0.81316 l 0.86398,5.33636 q -1.62632,0.55904 -3.45593,0.9148 -1.82961,0.40658 -4.11662,0.40658 -3.04934,0 -5.48882,-0.76234 -2.38866,-0.81316 -4.11662,-2.33783 -1.67714,-1.5755 -2.59195,-3.86251 -0.9148,-2.28701 -0.9148,-5.33636 z m 16.00907,-2.4903 q 0,-0.96563 -0.25411,-1.82961 -0.25411,-0.9148 -0.81316,-1.62632 -0.55905,-0.71151 -1.42303,-1.11809 -0.86398,-0.4574 -2.13454,-0.4574 -1.21974,0 -2.13454,0.40658 -0.86399,0.40658 -1.47386,1.11809 -0.55904,0.71152 -0.9148,1.62632 -0.30494,0.9148 -0.40658,1.88043 l 9.55462,0 z" />
      </g>
    </g>
  </g>
</svg>
