<?xml version="1.0" encoding="UTF-8" standalone="no"?>
<!-- Created with Inkscape (http://www.inkscape.org/) -->

<svg
   xmlns:osb="http://www.openswatchbook.org/uri/2009/osb"
   xmlns:dc="http://purl.org/dc/elements/1.1/"
   xmlns:cc="http://creativecommons.org/ns#"
   xmlns:rdf="http://www.w3.org/1999/02/22-rdf-syntax-ns#"
   xmlns:svg="http://www.w3.org/2000/svg"
   xmlns="http://www.w3.org/2000/svg"
   xmlns:sodipodi="http://sodipodi.sourceforge.net/DTD/sodipodi-0.dtd"
   xmlns:inkscape="http://www.inkscape.org/namespaces/inkscape"
   width="87.87986mm"
   height="76.305634mm"
   viewBox="0 0 87.87986 76.305634"
   version="1.1"
   id="svg4636"
   sodipodi:docname="ALTSpace-Logo-HighContrast.svg"
   inkscape:version="0.92.5 (2060ec1f9f, 2020-04-08)">
  <defs
     id="defs4630">
    <linearGradient
       id="linearGradient8200"
       osb:paint="solid">
      <stop
         style="stop-color:#000000;stop-opacity:1;"
         offset="0"
         id="stop8198" />
    </linearGradient>
  </defs>
  <sodipodi:namedview
     id="base"
     pagecolor="#ffffff"
     bordercolor="#666666"
     borderopacity="1.0"
     inkscape:pageopacity="0.0"
     inkscape:pageshadow="2"
     inkscape:zoom="1.4"
     inkscape:cx="96.731411"
     inkscape:cy="125.68955"
     inkscape:document-units="mm"
     inkscape:current-layer="layer1"
     showgrid="false"
     inkscape:window-width="1920"
     inkscape:window-height="1007"
     inkscape:window-x="0"
     inkscape:window-y="0"
     inkscape:window-maximized="1"
     fit-margin-top="0"
     fit-margin-left="0"
     fit-margin-right="0"
     fit-margin-bottom="0" />
  <metadata
     id="metadata4633">
    <rdf:RDF>
      <cc:Work
         rdf:about="">
        <dc:format>image/svg+xml</dc:format>
        <dc:type
           rdf:resource="http://purl.org/dc/dcmitype/StillImage" />
        <dc:title></dc:title>
      </cc:Work>
    </rdf:RDF>
  </metadata>
  <g
     inkscape:label="Layer 1"
     inkscape:groupmode="layer"
     id="layer1"
     transform="translate(-39.932487,-58.519667)">
    <polygon
       transform="matrix(0.26458333,0,0,0.26458333,39.897275,-33.766967)"
       class="a"
       points="188.5,349.8 67.5,559.3 111.8,559.3 188.5,426.5 309.6,636.2 331.7,598 "
       id="polygon8"
       style="fill:#fb89ff;stroke:#000000;stroke-opacity:1;fill-opacity:1" />
    <polygon
       transform="matrix(0.26458333,0,0,0.26458333,39.897275,-33.766967)"
       class="b"
       points="1,598 242.9,598 220.8,559.6 67.4,559.6 188.5,349.9 144.3,349.9 "
       id="polygon10"
       style="fill:#fb89ff;stroke:#000000;stroke-opacity:1;fill-opacity:1" />
    <polygon
       transform="matrix(0.26458333,0,0,0.26458333,39.897275,-33.766967)"
       class="c"
       points="309.6,636.2 188.7,426.7 166.5,465.1 243.2,598 1,598 23.1,636.2 "
       id="polygon12"
       style="stroke:#000000;stroke-opacity:1;fill-opacity:1;fill:#8089ff" />
    <path
       inkscape:connector-curvature="0"
       d="m 58.206441,117.072 h -2.16958 l 1.05833,-1.85209 h 6.53521 l -1.05833,1.85209 h -2.16959 l -3.6777,6.35 h -2.19605 z"
       id="path20"
       style="stroke:#000000;stroke-width:0.26458332;stroke-opacity:1;fill-opacity:1;fill:#8089ff" />
    <path
       inkscape:connector-curvature="0"
       d="m 65.164981,115.24637 h 2.19605 l -4.73605,8.20208 h -2.19604 z"
       id="path22"
       style="stroke:#000000;stroke-width:0.26458332;stroke-opacity:1;fill-opacity:1;fill:#8089ff" />
    <path
       inkscape:connector-curvature="0"
       d="m 69.609981,115.14054 c 0.0529,-0.0794 0.10584,-0.0794 0.10584,0 l 1.37583,4.41854 6.40292,-4.41854 c 0.0794,-0.0529 0.13229,-0.0794 0.10583,0 l -4.28625,8.28146 h -2.14312 l 1.82562,-3.4925 -3.41312,2.38125 c -0.0529,0.0265 -0.10584,0.0265 -0.10584,0 l -0.76729,-2.38125 -2.2225,3.51895 h -2.14312 z"
       id="path24"
       style="stroke:#000000;stroke-width:0.26458332;stroke-opacity:1;fill-opacity:1;fill:#8089ff" />
    <path
       inkscape:connector-curvature="0"
       d="m 79.743531,115.24637 h 5.74145 l -1.05833,1.85208 h -3.54542 l -0.76729,1.34938 h 2.96334 l -1.00542,1.74625 h -2.96333 l -0.82021,1.40229 h 3.73062 l -1.05833,1.85208 h -5.92667 z"
       id="path26"
       style="stroke:#000000;stroke-width:0.26458332;stroke-opacity:1;fill-opacity:1;fill:#8089ff" />
    <path
       inkscape:connector-curvature="0"
       class="g"
       d="m 71.594362,132.12679 0.89958,-1.19063 c 0.68792,0.50271 1.40229,0.89959 2.2225,0.89959 0.66146,0 0.92604,-0.18521 0.66146,-0.66146 -0.21167,-0.34396 -0.55562,-0.52917 -1.21708,-0.68792 l -1.16417,-0.3175 c -1.42875,-0.39687 -2.67229,-1.11125 -3.46604,-2.46062 -0.92604,-1.61396 -0.0794,-2.43417 1.37583,-2.43417 a 5.9422771,5.9422771 0 0 1 3.41313,1.08479 l -0.50271,1.32292 a 3.2215667,3.2215667 0 0 0 -1.77271,-0.58209 c -0.52917,0 -0.66146,0.23813 -0.47625,0.55563 0.18521,0.3175 0.44979,0.47625 0.92604,0.60854 l 1.29646,0.37042 c 1.95792,0.52916 2.96333,1.32291 3.62479,2.48708 0.87313,1.50813 0.55563,2.59292 -1.61396,2.59292 a 7.4083333,7.4083333 0 0 1 -4.20687,-1.5875 z"
       id="path28"
       style="fill:#fb89ff;stroke:#000000;stroke-width:0.26458332;stroke-opacity:1;fill-opacity:1" />
    <path
       inkscape:connector-curvature="0"
       class="g"
       d="m 82.574572,133.52908 h -2.19604 l -4.73605,-8.20208 h 3.3073 c 2.0902,0 3.96875,1.27 4.9477,2.93687 0.97896,1.66688 0.52917,2.91042 -1.56104,2.91042 h -1.11125 z m -1.40229,-4.18042 c 0.74083,0 0.92604,-0.39687 0.52916,-1.08479 a 2.0745979,2.0745979 0 0 0 -1.77271,-1.08479 h -1.00541 l 1.24354,2.16958 z"
       id="path30"
       style="fill:#fb89ff;stroke:#000000;stroke-width:0.26458332;stroke-opacity:1;fill-opacity:1" />
    <path
       inkscape:connector-curvature="0"
       class="g"
       d="m 91.517482,132.55012 h -2.8575 l 0.15875,0.97896 h -2.14312 l -0.82021,-8.33438 c 0,-0.0794 0.0529,-0.0794 0.13229,0 l 8.78417,8.33438 h -2.27542 z m -3.09562,-1.5875 h 1.48167 l -1.74625,-1.74625 z"
       id="path32"
       style="fill:#fb89ff;stroke:#000000;stroke-width:0.26458332;stroke-opacity:1;fill-opacity:1" />
    <path
       inkscape:connector-curvature="0"
       class="g"
       d="m 99.163942,133.63491 c -2.30187,0 -5.26521,-1.74625 -6.69396,-4.20687 -1.42875,-2.46063 -0.47625,-4.18042 1.7198,-4.18042 1.7727,0 3.28083,0.74083 4.55083,1.74625 l -1.00542,1.11125 a 3.7861875,3.7861875 0 0 0 -2.40771,-0.97896 c -1.21708,0 -1.34937,1.00542 -0.60854,2.30188 0.74084,1.29646 2.09021,2.30187 3.33375,2.30187 1.05834,0 1.29646,-0.47625 1.27,-1.13771 l 2.301878,1.0848 c 0,1.37583 -0.79375,1.95791 -2.460628,1.95791 z"
       id="path34"
       style="fill:#fb89ff;stroke:#000000;stroke-width:0.26458332;stroke-opacity:1;fill-opacity:1" />
    <path
       inkscape:connector-curvature="0"
       class="g"
       d="m 99.296232,125.35345 h 5.741458 l 1.05834,1.85209 h -3.54542 l 0.76729,1.34937 h 2.96333 l 1.00542,1.74625 h -2.96333 l 0.82021,1.40229 h 3.73062 l 1.05833,1.85209 h -5.92666 z"
       id="path36"
       style="fill:#fb89ff;stroke:#000000;stroke-width:0.26458332;stroke-opacity:1;fill-opacity:1" />
    <path
       inkscape:connector-curvature="0"
       d="m 95.142281,69.976162 1.08479,1.905 -3.67771,6.35 1.74625,3.01625 -1.05833,1.85208 -2.83105,-4.92125 z"
       id="path38"
       style="stroke:#000000;stroke-width:0.26458332;stroke-opacity:1;fill-opacity:1;fill:#8089ff" />
    <path
       inkscape:connector-curvature="0"
       d="m 98.740611,76.220332 1.084782,1.905 -4.736032,8.20208 -1.08479,-1.905 z"
       id="path40"
       style="stroke:#000000;stroke-width:0.26458332;stroke-opacity:1;fill-opacity:1;fill:#8089ff" />
    <path
       inkscape:connector-curvature="0"
       d="m 100.56622,90.005122 -0.820197,-1.40229 0.978947,-1.69334 1.79917,3.09563 -2.03729,3.54541 c -0.740827,-0.0265 -1.534574,-0.37041 -2.434159,-1.95791 -1.21708,-2.09021 -1.19062,-5.55625 0.21167,-8.01688 1.428742,-2.46062 3.413109,-2.46062 4.603739,-0.42333 a 7.0114583,7.0114583 0 0 1 0.79375,4.31271 h -1.53458 c 0.10583,-0.87313 0.0265,-1.74625 -0.39688,-2.43417 -0.66146,-1.16417 -1.61396,-0.79375 -2.354784,0.50271 -0.740825,1.29646 -0.978955,3.01625 -0.26458,4.25979 0.396867,0.68792 0.714367,0.92604 0.978944,1.05833 z"
       id="path42"
       style="stroke:#000000;stroke-width:0.26458332;stroke-opacity:1;fill-opacity:1;fill:#8089ff" />
    <path
       inkscape:connector-curvature="0"
       d="m 107.92164,92.095332 1.08479,1.905 -4.73604,8.202068 -1.08479,-1.905 1.85208,-3.201448 -1.42875,-2.46062 -1.85208,3.20145 -1.08479,-1.905 4.73604,-8.20208 1.08479,1.905 -1.82562,3.14854 1.42875,2.46063 z"
       id="path44"
       style="stroke:#000000;stroke-width:0.26458332;stroke-opacity:1;fill-opacity:1;fill:#8089ff" />
    <path
       inkscape:connector-curvature="0"
       d="m 109.77372,99.000946 -1.08479,-1.878534 1.05834,-1.85208 3.25437,5.662068 -1.05833,1.85209 -1.08479,-1.87855 -3.67771,6.35 -1.08479,-1.905 z"
       id="path46"
       style="stroke:#000000;stroke-width:0.26458332;stroke-opacity:1;fill-opacity:1;fill:#8089ff" />
    <path
       inkscape:connector-curvature="0"
       d="m 71.356235,86.909493 -1.42875,2.46063 0.92604,0.34396 -1.08479,1.85208 -7.64646,-3.46604 c -0.0794,-0.0265 -0.0529,-0.10584 0.0794,-0.13229 l 11.61521,-3.43959 -1.13771,1.95792 z m -2.93687,1.87854 0.74083,-1.27 -2.38125,0.635 z"
       id="path48"
       style="stroke:#000000;stroke-width:0.26458332;stroke-opacity:1;fill-opacity:1;fill:#8089ff" />
    <path
       inkscape:connector-curvature="0"
       d="m 65.032695,83.443453 1.08479,-1.905 h 9.47208 l -1.08479,1.905 z"
       id="path50"
       style="stroke:#000000;stroke-width:0.26458332;stroke-opacity:1;fill-opacity:1;fill:#8089ff" />
    <path
       inkscape:connector-curvature="0"
       d="m 77.653315,77.966583 -1.08479,1.905 h -9.47208 l 1.66687,-2.8575 a 5.7861729,5.7861729 0 0 1 4.97417,-2.80459 c 1.24354,0 1.98438,0.44979 2.01083,1.29646 l 4.20688,-1.48167 -1.19063,2.06375 -3.6777,1.24355 -0.37042,0.635 z m -4.39208,-0.87313 c 0.37042,-0.635 0.13229,-0.97896 -0.635,-0.97896 a 1.9679708,1.9679708 0 0 0 -1.77271,0.97896 l -0.50271,0.87313 h 2.40771 z"
       id="path52"
       style="stroke:#000000;stroke-width:0.26458332;stroke-opacity:1;fill-opacity:1;fill:#8089ff" />
  </g>
</svg>
